<mxfile host="app.diagrams.net" modified="2020-09-16T05:04:33.273Z" agent="5.0 (Windows NT 10.0; Win64; x64) AppleWebKit/537.36 (KHTML, like Gecko) Chrome/84.0.4147.89 Safari/537.36" etag="nBx7bSuAA2LGhJC1pwia" version="13.7.1" type="github">
  <diagram id="1JOoQEWAKa8ON8yqsXqw" name="Page-1">
    <mxGraphModel dx="1865" dy="1717" grid="1" gridSize="10" guides="1" tooltips="1" connect="1" arrows="1" fold="1" page="1" pageScale="1" pageWidth="827" pageHeight="1169" math="0" shadow="0">
      <root>
        <mxCell id="0" />
        <mxCell id="1" parent="0" />
        <mxCell id="ELeqzbXnUGOwrgv0zDQ3-1" value="" style="shape=image;verticalLabelPosition=bottom;labelBackgroundColor=#ffffff;verticalAlign=top;aspect=fixed;imageAspect=0;image=data:image/png,iVBORw0KGgoAAAANSUhEUgAAA3IAAAKVCAYAAACK4dlvAAAgAElEQVR4AeydiZ9U1Z3o3180k5k3byYzk8ls701mSzKTxGyTmMTscYlxN3GPCi4oCiKoiAuigLIv3dDsu82+CyKrIqAgsggonPf5nuZC2VQ31dW3qu7y5fO5VPWte8/yPadun2//zj33fwX/SUACEpCABCQgAQlIQAISkECuCPyvXJXWwkpAAhKQgAQkIAEJSEACEpBAUOTsBBKQgAQkIAEJSEACEpCABHJGQJHLWYNZXAlIQAISkIAEJCABCUhAAoqcfUACEpCABCQgAQlIQAISkEDOCChyOWswiysBCUhAAhKQgAQkIAEJSECRsw9IQAISkIAEJCABCUhAAhLIGQFFLmcNZnElIAEJSEACEpCABCQgAQkocvYBCUhAAhKQgAQkIAEJSEACOSOgyOWswSyuBCQgAQlIQAISkIAEJCABRc4+IAEJSEACEpCABCQgAQlIIGcEFLmcNZjFlYAEJCABCUhAAhKQgAQkoMjZByQgAQlIQAISkIAEJCABCeSMgCKXswazuBKQgAQkIAEJSEACEpCABBQ5+4AEJCABCUhAAhKQgAQkIIGcEVDkctZgFlcCEpCABCQgAQlIQAISkIAiZx+QgAQkIAEJSEACEpCABCSQMwKKXM4azOJKQAISkIAEJCABCUhAAhJQ5OwDEpCABCQgAQlIQAISkIAEckZAkctZg1lcCUhAAhKQgAQkIAEJSEACipx9QAISkIAEJCABCUhAAhKQQM4IKHI5azCLKwEJSEACEpCABCQgAQlIQJGzD0hAAhKQgAQkIAEJSEACEsgZAUUuZw1mcSUgAQlIQAISkIAEJCABCShy9gEJSEACEpCABCQgAQlIQAI5I6DI5azBLK4EJCABCUhAAhKQgAQkIAFFzj4gAQlIQAISkIAEJCABCUggZwQUuZw1mMWVgAQkIAEJSEACEpCABCSgyNkHJCABCUhAAhKQgAQkIAEJ5IyAIpezBrO4EpCABCQgAQlIQAISkIAEFDn7gAQkIAEJSEACEpCABCQggZwRUORy1mAWVwISkIAEJCABCUhAAhKQgCJnH5CABCRQI4Gz586FE6c+Dcu27g+PTVwdbhq5MPzsydnhew/PDN94cJqbDHLdB77z0Ixw5WPt4ddPzQ0PjH0zTOvcGQ4cORHOnj1X4zfEwyQgAQlIoJkEFLlm0jYvCUgglwQYyO4++HEYPHl1+NaD08J3Bs4Ivxw6J9z2wuJwz5jlYcD4zvDohFVuMshtHxg0cVV46PWV4f6xK8KdLy8N142YH374WFv4xgPTYv/euvewQpfLq5eFloAEikxAkSty61o3CUig3wSOf3ImjJq9KXz9/qnhR4Paw8DxneGp6evCsOnrwvAZ68OImevDiLYN4Rk3GRSgD9CX6dNPz1gf+ziC94shHeGKAdPDqI5Nge+D/yQgAQlIIBsEFLlstIOlkIAEMkiAKNwfXloS/vuBqTEqkQxyGegicWwMeN1kUKQ+kPTt+EeKmevDs+0bwoBxneFbA6aFO15eGg4fO5XBb6tFkoAEJFA+Aopc+drcGktAAjUQQOJ+9dSc8JPBs8LQaetitElxU9iKJGy11oV+j8w9OWVt+MGjbeGOl5aEj0+eruFb5CESkIAEJNBIAopcI+matgQkkEsCR46fCjc8tzD89MmOC1Mnax30epyyV9Q+wPThIVPXhisGTo/R6FNnPsvl99tCS0ACEigKAUWuKC1pPSQggdQIDJ68Jlz5eHu8F47plEUdmFsvpbOvfeC59o3hodc7w7cHzgjLt+5P7TtnQhKQgAQk0HcCilzfmXmGBCRQYAJr3jkYvvvwjPDIhFVxOmVfB7oerxwVuQ+wyM/zszeFa4bPC/e8sjwcO+niJwW+HFo1CUgg4wQUuYw3kMWTgASaS4BHCtz0/MI4pdJ74pSyIktZvXVjERTul/v6/VMCf/jwnwQkIAEJtIaAItca7uYqAQlkkAALnPx8SEd8nhZTyOod6HqeAlj0PjBy1sbww0fbwstzt4RPPzubwW+zRZKABCRQfAKKXPHb2BpKQAI1Ehi/eHu4dsT8wD1yLOxQ9MG49VM46+0DfD+IXt/24uLw0QlXsKzxEuNhEpCABFIloMilitPEJCCBPBN4+I2V4bfPzPcZcT4bT4m/TB9geuXA8Z3hh4Pawv7DJ/L8tbfsEpCABHJLQJHLbdNZcAlIIG0Ct45aHG5/YXFwWqWRqnojVWU5D5Ejcv2NB6eGfR8cS/uraHoSkIAEJFADAUWuBkgeIgEJlIPA755dEO58eWkYOWuTEZnLRGTKIizWs7rUsxAQK1j++z2Twp5Dilw5rpDWUgISyBoBRS5rLWJ5JCCBlhFQ5KoP2pUZuXTvA4gc98n9y50TAosE+U8CEpCABJpPQJFrPnNzlIAEMkpAkVNYuguLP1fvE4pcRi9iFksCEigVAUWuVM1tZSUggd4IKHLVB+3KjFy69wFFrrcriZ9JQAISaA4BRa45nM1FAhLIAQFFTmHpLiz+XL1PKHI5uKBZRAlIoPAEFLnCN7EVlIAEaiWgyFUftCszcuneBxS5Wq8qHicBCUigcQQUucaxNWUJSCBnBBQ5haW7sPhz9T6hyOXs4mZxJSCBQhJQ5ArZrFZKAhKoh4AiV33QrszIpXsfUOTqucJ4jgQkIIF0CShy6fI0NQlIIMcEFDmFpbuw+HP1PqHI5fhCZ9ElIIHCEFDkCtOUVkQCEugvAUWu+qBdmZFL9z6gyPX3auP5EpCABPpPQJHrP0NTkIAECkJAkVNYuguLP1fvE4pcQS56VkMCEsg1AUUu181n4SUggTQJKHLVB+3KjFy69wFFLs0rj2lJQAISqI+AIlcfN8+SgAQKSECRU1i6C4s/V+8TilwBL4BWSQISyB0BRS53TWaBJSCBRhFQ5KoP2pUZuXTvA4pco65CpisBCUigdgKKXO2sPFICEig4AUVOYekuLP5cvU8ocgW/GFo9CUggFwQUuVw0k4WUgASaQUCRqz5oV2bk0r0PKHLNuCKZhwQkIIHeCShyvfPxUwlIoEQEFDmFpbuw+HP1PqHIlejCaFUlIIHMElDkMts0FkwCEmg2AUWu+qBdmZFL9z6gyDX76mR+EpCABC4loMhdysQ9EpBASQkocgpLd2Hx5+p9QpEr6UXSaktAApkioMhlqjksjAQk0EoCWRS5ETPXBzYGzvVKBedWnp+kWWt6nNu9DN3TrDWtascl6Vf7jH3J50m5q732dG5R96fJvx5G5P9M24bwL3dOCLsPftzKr615S0ACEigtAUWutE1vxSUgge4EsiRyDJQZYN/36orwx9dWhGHT131OxmodfHcf8PPzgPGd4YGxb4anakzz8UmrYzkGT14Ty9Q9zVrLUu04pOzJKWsD7B95Y+UldeTzh99YGe4Zszzc/cqyS7a7Ri8LA8Z11lyXamXI476kf7Sq7OSvyHW/gvizBCQggeYSUOSay9vcJCCBDBPIksghMAjcl24ZF/725nHhjpeXxqhYXwbupDFk6trwm2Fzw+0vLA4jZ20MI9o2hG8NmBb+897J4Ykpa+LPPaXJYJ00bn5+UfjH21+PZWDwjtD99pn5F37u6fzL7U/Sv+2FxeGffv9GFDnyqzzvufaN4cpB7eGvbngt/M3NYyMLXiu37zw047J1qUwz7++R+hueWxjbZei0+gS/vwwUuQxfyCyaBCRQGgKKXGma2opKQAKXI5AVkYuC07Yh/GTwrPAX148J/+d3rwZkBcnhs+6D8GRQ/Wz7hhglSWTo+dmbwp0vL40SdN2I+eHFOZtjGlc/PS/8cuicKHmIWXJ8ZbpJGfjs3jHLw48ebw8PjnszjOrYFP7w0tJYppueXxRGztoUz0cQq5WN/dXSJy+OJypI2v9+z6SqUUfk84oB08OfXjs6UO7bX1wSbhm16MKGZBKtQ2iSvMiPerElZUrqk+yv/Kyy3pXn8j6eV8Gdfcl+0oB5Zd15n+TBcZVp85591c5LjqslfSKU/3D76+FnT3ZcKF9yfrNe4UI9nFp5uauKn0tAAhJoHAFFrnFsTVkCEsgZgSyJHNEyolT/df/U8O2B08Pf3TIuDBzfeYkUMZhmUP3YxNXx80cmrIpyhGCwEbn5378dE3711Jx4LtEconRMZ+Q9+fBzd+lIPhs6dW2UJI5DusiPNBEr5BBx4DO2ahJBPmyUsfvn5MlnSNxPn5gdy9D9OESO+iOzCEyMKp6XqUrpIW3KSl0o+6CJq8KjE1bFfYngMUX0oddXxg1e5FVZb+pGGkzx5DjS4hjKSN3Jg31RGmeuj3lw3ODJq2M6nM+x7KMdKEeSPunE9Keti5/RlpQh1qFtwwU2nM955EX5SYtyJ2XlM8SaiCQCTN581p1to39O6qPI5ewiZ3ElIIFCEVDkCtWcVkYCEugPgayIXCJLyMtNIxfGKYzIGLLDVMNkkI6gMM2RSBUy9H/vmBC+cufEGKlBOLh3jJ+/cN0r8bNrhs+LosHxvxjScf7cueHHj8+K+xMhQAC594woIPfosTG9kfvqkIh/u3tS+JNrRof/d8eEcP0zC6LQcSz33lF2yscrIvL9R2YGInfJ/qTsvFJ+onxMHyW/RHoqj6kUOeSIiGAiqbySLuXmPaxghLQiwWz3vdoVrWMq6FfvmxJ5/PMf3ghfuWtiuHb4vM+JHtL0g0fbIivq9sNBbbFu8KHusGeaKtFMJJbpqUw55ZWpr/ePXRGZJXknUc8okm0bopRd+Vh7jGKRPudRrkSQeSUv9lEH2pTIG6+3jlp8gRes/+y6V+Jn8E1Er5Jbo98rcv250niuBCQggXQIKHLpcDQVCUigAASyIHIMkBn4E4kj6kLEhSgNwsDgn4gRwpNIF7LBoP4bD0wLVz89N3zvkZnx5yhW4zrD1/84Jf6MDCA6nI/QIH1E0ZA7JJHpiokUISzffWhG+MsbXosyyPRF7lFjWiPiRdmIyCEinHf9swtiGohLLP/5iBlCQtrcA9dd5DiODZlCrBDS3kSOdJA9pIWIWRI1I6pFlIpppEgS8gu3f71rYvjafVPifYZMQaS833ywixHlhCUyimRSXzhTH+pJOr8eNjf8xz2TogR/8cbX4nTSFzo2R3bk8eVbx0fRIyr21zeNjRFTjocN+SGKpA8fJBMJpUxJ+sg0bUa9yIs2px6UnfxoH9K+avCsmDb7WeyFSCNSzXnUAXFtRVSOtqNNjcgV4MJnFSQggdwSUORy23QWXAISSJtAFkSOAT2RHQbuSBpyw4CZCA2D9xufWxinFyIHRIGQCuSNgTXRKo4nqoM0IGrID8cgWy/P3RLTQuSiFDLN742VUS4QP4SGvIhM/f1t42O6yAUC+Nc3jo0i99KczVFqkEeiRNx3hxySH0KGWBFFQz4RIyKC1RbkoLxEjbj/jbyJRvUkckglUkSZEJwk4oXc8hkig2RxTyHHXcU0zfP3qsGAxV04jrpx3Cvzt0YhpU4wpo5E2P78t2MiJ8rPcUgj0ccvXPtKvNeQfchhImjII8ciZexL8oAJC9XQhkT44PPzIR3xfkfuLxw9b0t4ae6WeH/h9x6eGcWNiB/lo0y0Fz+TPmkhg6SPgHIeU0wRSaKqnENdGx2B656+Ipf21cf0JCABCfSdgCLXd2aeIQEJFJRAFkSOxUMQEaZDEslCApAchAx5QkoYuDPIZyCPZPAZ5zHYZoCN2DClkPdE0RADIl9R9No2xKgSIpfcj3XFwOlxmh5TIZEVpAZpJH/S5Z64RORIg/2UBcFDZNiIQiFCSVkQESJL3aeDJkKAtBGFQ8aYnpmIXfJ58kraiB48iC5SVuSPDRYIErJGuRBYhIfFT5JFWGBHFCve2zZ1bbyPkDJyHhFHpibyGZE07kPkfSKUpEmUkwVnkOZE5GBB2ZEo8kFoaQc40S60D7KFeFJ25BahRexoj9+/tCSuIkqEjegaZU6mn3IM0Tx4UA7qz3RWygBjRJops5QVtkhoUt6EWTNeKR/1NyJX0Iuh1ZKABHJBQJHLRTNZSAlIoBkEWi1yDI4RieQeNKJPvGfjPQN+BvBIGpEZpt4xVY/oD9G0ZACPSCAAiAiPHehJ5JARjkPMEDeEip+Z8kfUi+mA/Hw5kSM/plwiIcgU8kT0iJ+RjmqiwT6E5su3jY/31pFGUv7KV/K/3GInHI9AwYO6ck8f57GffKgH0To4Io5JRA85JGKG0CIk7E8WMknSpO7cw0dZE5HjOGS5i/OmGDFDbJmCSr7sHzi+M9aNiBsiidQhupURRSKY3ANHmYm00v48aoJIZhKhpF0ROY5BPhW5ZlwJzEMCEpBAPggocvloJ0spAQk0gUCrRY5BOzJA9OW/H5gaIy7cI4WEMIhHCrjXi31Mz0OauosLMkCUhigQ0y8vL3Kb4qIkCAXRo2RaJ9EezkdKehO5RCCJzlBmRIloFFElpiEiUpSpUs74mf2Un2meRNRqETmmfJIf51duiXQhcsgjdeA40kRWuXcNUWUKKtMgiYoRAUPQ2IfIIXlIZaXIIcJEJ5FlpkQmIkc0s5rIkWZ3kWO6ZSJyMCayR/5xe2FxnLJJZI5pnMgbIkd5FbkmfOHNQgISkEDOCShyOW9Aiy8BCaRHoJUih5ggTgz8iRQRhSHKhCCx8R5BIiKHSBC5I4KG2FVGgpAXokfcs0YayX10CEl8jlzF1MpkeiBShbgRaSL6hQwlUyT5rCeR68q3a0onZYQf0ymZGkoa3JdXTdASCUOekFLEk32Vspe8r4zIEeWCUfJZ5WsSkWPhkUqRo/5EMv/n0bbIETlDgpl+SVkROaavJg8d59yEOWUnYtf9Hjmian0ROY5FWBFFpBEhpLzcs0h0FVGnbWHQF5FjqiXn0EaVLJrxnnzh5NTK9K4/piQBCUigrwQUub4S83gJSKCwBFopcgyKua+MRSyYWodkIS0MmONg/fwy+0SdkDfKiiAQ5UHAEBDEAyFANIg2EZUjkoQYshIj8kdapH9hpcjz0zCJCnEO0sLqjhxLmZAE8iIqRXQPEUIUkSMEhOOS6BGRNSJyRBSZShhlp4pkUE6mYiKlpEU+PckHIsd9cUTULidy1BE5qxQ56gUvBJm6kDcLvHBPXCJ4ROGYAsq9b4kAc78gq0kS8aQ+PFgdAUPIuk+tRGjhltwzSB6UlfpRdtInWscxRD0TCSRPpBz5hAfn8R7BTZgSWax2jxzCxz2CtDfH9sSvUfsVucJeBq2YBCSQIwKKXI4ay6JKQAKNJYCwMGBPFg5p1CC4WrrkyaMAuNeK6FkicZXHIjVEmDiGyBmDaaboIX9EwJjOyHsEggU4OJ5nu7HQBkKChCAxCADHIovIAxvv2Y9s8NgAyhMFcub6eP8W4oB0sR/hRNRIE+lDJqL0tW2IwoggsYgI57NV1oH3HMviK5QrObf7McnP1AEJQyQvJ3KIJTJK+ZKplcmqlZQVSUPgkmmkCC8LqCBW5IOQwY+68sojG5BeBC+ZWsn5lDuRMXjAGtmrjIxSVqSWsiNaRB2JelIO2MGffBA37o+jDTiGfLvfI0fUDkFlcZu4Sui0dfEY0kIqe7oPMWHYiFfalXY0ItfYa5KpS0ACEuiNgCLXGx0/k4AESkWglSLHQJ4BOVKQSEL3ATgRJSJgyCZTH5kSyD7uHWN1RSJSPKYAeUskileiPUgiUzFJm8VRiFQhGIlo8cp5iCH3a1GeJH+iU4gMEb7keKJe5ImEkCbiyZbcU4ZwUrYkjcpX0iYfolRJlLDy88r3pEFeSCTTEpP8K4/hPcfBj3Iib8lxvPIz0TLuyeNeQ9IiSka6lJMywJL0qSuLv7Cxn0VbWKQkEXykqpId+XIPHPXhlZ/Jk7Q4hzwQNPbzSnSNMjCVk7aKkbjzz93jc8rDMUn9OA/JpszIIezYh5Aj3LRrZbsk5zX6lToqcqW6PFpZCUgggwQUuQw2ikWSgARaQ6CVIsfAm8FxIgI9DcS7HxN/Pj/tEhHgPAb77O8pTT5LPq/MJ6bVy+IkybGVx/GefJFC5IUFTojSIE+VMpicm7wmZU1+7u01ya+3Y/isp+MSpuTJxs+VG+ciRUTnkFmic2zUKXksAfuTKCn5VJYlybfa/sp9Mc/zgpzUv7KtSDMpa2X61fb3dFz38xr1M/VS5FpznTJXCUhAAgkBRS4h4asEJFB6Aq0WOQbdlQP/3gbh3Y/j52Srdl5vn1Ue3z3d5LNq+9mHiBCJInLF1E2m+8Hxcvld7vMk3+S1Wv7JZ5WvPR2X5Nf9c35GioieMc0RCUXqiF4icdybR92S8yvzqnzfPV0+q7Yv2d9Ter2dU5lfZTrd9zfjZ8qpyJX+kikACUigxQQUuRY3gNlLQALZIZAFkWvGIDzNPJAgpmLygG7u1+I+tcol/NPMq1FpJfLENFGW/uceOjakjscVJFNYG5V/HtNV5LJz3bIkEpBAeQkocuVte2suAQl0I6DIfX7KYF8Eg/vkKu8R68u5WTmWCBNl4QHi3IOGwCXPrctKGbNSDkWu28XDHyUgAQm0gIAi1wLoZikBCWSTgCJXv8gRmWv1fVtpSA6CwnTRuPWwWEsa+eQ9DUUum9cwSyUBCZSLgCJXrva2thKQQC8EFLn6RS7vYmL5+9b2ilwvFxI/koAEJNAkAopck0CbjQQkkH0CilzfBvPKT3l5KXLZv55ZQglIoPgEFLnit7E1lIAEaiSgyJVXTJTSvrW9IlfjRcXDJCABCTSQgCLXQLgmLQEJ5IuAIte3wbzyU15eily+rm2WVgISKCYBRa6Y7WqtJCCBOggocuUVE6W0b22vyNVxgfEUCUhAAikTUORSBmpyEpBAfgkocn0bzCs/5eWlyOX3OmfJJSCB4hBQ5IrTltZEAhLoJwFFrrxiopT2re0VuX5ebDxdAhKQQAoEFLkUIJqEBCRQDAKKXN8G88pPeXkpcsW45lkLCUgg3wQUuXy3n6WXgARSJKDIlVdMlNK+tb0il+KFx6QkIAEJ1ElAkasTnKdJQALFI6DI9W0wr/yUl5ciV7zrnzWSgATyR0CRy1+bWWIJSKBBBBS58oqJUtq3tlfkGnQRMlkJSEACfSCgyPUBlodKQALFJqDI9W0wr/yUl5ciV+xrobWTgATyQUCRy0c7WUoJSKAJBBS58oqJUtq3tlfkmnBBMgsJSEAClyGgyF0GkB9LQALlIaDI9W0wr/yUl5ciV57rojWVgASyS0CRy27bWDIJSKDJBBS58oqJUtq3tkfkYPZvd08Kuw9+3ORvqtlJQAISkAAEFDn7gQQkIIHzBG56flH4/UtLwshZG+Mg1cF93wb38ioPrxEz14fBk1eHbz44Lez74JjXEAlIQAISaAEBRa4F0M1SAhLIJoEHxr4ZiMqNaNsQkoiDclIeObGta29rRG7A+M7wk8GzwoEjJ7L5hbZUEpCABApOQJEreANbPQlIoHYCL3RsDjeNXBSGTl0XZc6Bfe0De1mVixV/7LjthcXh9hcWh49OnK79S+aREpCABCSQGgFFLjWUJiQBCeSdwKY9H4Zrh88Pj7yxMjzX7vRK5axcctaX9h45a1OMxo2etyV8+tnZvH/1Lb8EJCCBXBJQ5HLZbBZaAhJoBIFz50K4bsT8cNfoZU6vPL+YRV8G9x5bDvFjWuVT09eHr/1xSliz42AjvoqmKQEJSEACNRBQ5GqA5CESkEB5CLSv2hUjDSzk8EzbBhc9UejsAxV9YNj0dWFUx6Zw3fB54c7RS8ORY6fKc3GwphKQgAQyRkCRy1iDWBwJSKC1BM6ePRfv+7n66XkxKkf0wUiTDOwDXX2AKcdPTF4Tvj1wRli06d3WflnNXQISkEDJCShyJe8AVl8CEriUwI79H4WfD+kINz+/KD6KQJlT5BS59eHZ9g0xSv2jx9rD45NWh2Mnz1z65XGPBCQgAQk0jYAi1zTUZiQBCeSJwJvb3g8/HNQWbnhuQRzAKnPKXJlljkgcU42vemJ2uP6Z+T5yIE8XM8sqAQkUloAiV9imtWISkEB/CSzfuj/86qk58Z65oVPXRqHj+XI+Y06pK4PUJX2dFSqHTF0bfholbkHYffDj/n61PF8CEpCABFIgoMilANEkJCCB4hLYeeBouHfM8vDV+6aEG59bGJ6avi5GJojQucmgyH2AqZRDp60LN41cGK4YMD0MmrjKSFxxL3XWTAISyCEBRS6HjWaRJSCB5hL4+OTpsGTze+H6ZxeEr943OfxiSEdcEOWh11eGJ6esjYNdBrxuMsh9H5i6Njw6YVW48+Vl4Zqn50WB415R+v/xU94T19wrj7lJQAIS6J2AItc7Hz+VgAQkcIHA0ROnw9a9h8OY+VvjQig/GNQWvnrv5PBvd09yayCDf/7DhPClW8aFf7j99fCvd0+UdQNZ/8c9k8J3H5oRfvfsgvBCx+awcfcHgX7vPwlIQAISyB4BRS57bWKJJCCBjBM4e+5c+OT0p3HVPga5H7k1lMHEZW+Hv715XHxQ+6GjJxual215OhCBPnn60/DZ2XMZ/yZaPAlIQALlJqDIlbv9rb0EJCCBzBOYs25PjMgNGNeZ+bJaQAlIQAISkECzCChyzSJtPhKQgAQkUBeB9tW7o8jdP3ZFOP3p2brS8CQJSEACEpBA0QgockVrUesjAQlIoGAEFLmCNajVkYAEJCCBVAgocqlgNBEJSEACEmgUAUWuUWRNVwISkIAE8kxAkctz61l2CUhAAiUgoMiVoJGtogQkIAEJ9JmAItdnZJ4gAQlIQALNJKDINZO2eUlAAhKQQF4IKHJ5aSnLKQEJSKCkBBS5kja81ZaABCQggV4JKHK94vFDCUhAAhJoNQFFrtUtYP4SkIAEJJBFAopcFlvFMklAAhKQwAUCitwFFL6RgAQkIAEJXCCgyF1A4RsJSEACEsgiAUUui61imSQgAQlIoNUEFLlWt4D5S0ACEpBArwQUuV7x+KEEJCABCUD3cEAAACAASURBVJSUgCJX0oa32hKQgATyQkCRy0tLWU4JSEACEmgmAUWumbTNSwISkIAE+kxAkeszMk+QgAQkIIESEFDkStDIVlECEpBAngkocnluPcsuAQlIQAKNIqDINYqs6UpAAhKQQCoEFLlUMJqIBCQgAQkUjIAiV7AGtToSkIAEikZAkStai1ofCUhAAhJIg4AilwZF05CABCQggYYRUOQahtaEJSABCUggxwQUuRw3nkWXgAQkUAYCilwZWtk6SkACEpBAXwkocn0l5vESkIAEJNBUAopcU3GbmQQkIAEJ5ISAIpeThrKYEpCABMpKQJEra8tbbwlIQAIS6I2AItcbHT+TgAQkIIGWE1DkWt4EFkACEpCABDJIQJHLYKNYJAlIQAISuEhAkbvIwncSkIAEJCCBhIAil5DwVQISkIAEMklAkctks1goCUhAAhJoMQFFrsUNYPYSkIAEJNA7AUWudz5+KgEJSEAC5SSgyJWz3a21BCQggdwQUORy01QWVAISkIAEmkhAkWsibLOSgAQkIIG+E1Dk+s7MMyQgAQlIoPgEFLnit7E1lIAEJJBrAopcrpvPwktAAhKQQIMIKHINAmuyEpCABCSQDgFFLh2OpiIBCUhAAsUioMgVqz2tjQQkIIHCEVDkCtekVkgCEpCABFIgoMilANEkJCABCUigcQQUucaxNWUJSEACEsgvAUUuv21nySUgAQmUgoAiV4pmtpISkIAEJNBHAopcH4F5uAQkIAEJNJeAItdc3uYmAQlIQAL5IKDI5aOdLKUEJCCB0hJQ5Erb9FZcAhKQgAR6IaDI9QLHjyQgAQlIoPUEFLnWt4ElkIAEJCCB7BFQ5LLXJpZIAhKQgAQqCChyFTB8KwEJSEACEjhPQJGzK0hAAhKQQKYJKHKZbh4LJwEJSEACLSKgyLUIvNlKQAISkEBtBBS52jh5lAQkIAEJlIuAIleu9ra2EpCABHJHQJHLXZNZYAlIQAISaAIBRa4JkM1CAhKQgATqJzBv/d7wd7eMCwPGd9afiGdKQAISkIAECkZAkStYg1odCUhAAnkncODIibBw476wbOv+sOKt/WHo1LXhr28cG64ZPi/uX7rlvfDWviN5r6bll4AEJCABCfSLgCLXL3yeLAEJSEACaRNY9faB8M0Hp4Wv3DUx/Nvdk8Lf3zY+fOHaV6LMfeXOieE/750cXlv4VtrZmp4EJCABCUggVwQUuVw1l4WVgAQkUHwCh4+dClc/PS/8yTWjq25E59a8c7D4IKyhBCQgAQlIoBcCilwvcPxIAhKQgARaQ2Dy8h3hf/92TFWR+9Hj7eGzs+daUzBzlYAEJCABCWSEgCKXkYawGBKQgAQkcJHA+0dOhJ8+MfsSkfuz614Jz7ZvuHig7yQgAQlIQAIlJaDIlbThrbYEJCCBrBN4fvam8IXrXvmczH3plnFh697DWS+65ZOABCQgAQk0nIAi13DEZiABCUhAAvUQ2LH/o/DtgdM/J3I/fnxWOHXms3qS8xwJSEACEpBAoQgocoVqTisjAQlIoFgEHnlj5eeici/O2RzOeXtcsRrZ2khAAhKQQF0EFLm6sHmSBCQgAQk0g8DGXR/ERxCwguUXb3wtbN3ntMpmcDcPCUhAAhLIPgFFLvttZAklIAEJlJrAraMWx+mVVw2eFY6fOlNqFlZeAhKQgAQkkBBQ5BISvkpAAhKQQCYJzN+wL/z1TWPDyFmbwlkfO5DJNrJQEpCABCTQfAKKXPOZm6MEJCABCfSRwL1jloedB4728SwPl4AEJCABCRSXgCJX3La1ZhLIHYFPPzsb1uw4GMYt2haenrE+DBjXGW5/YXG4aeRCtxIzuGXUorh65bXD59kPStwPbn5+Ubhr9LIwcHxnGDlrYyBS+8HHn+TuOmeBJSABCaRFQJFLi6TpSEACdRNgmfknpqwJvxw6J/zu2QXhthcXh9teXBKIwjBoe3TCqvCImwzsA6XtA1wDHn5jZbh/7Iooc7c8vzjcOHJh+PmQjnDny0vDwo3vhrMuZ1r3NdgTJSCBfBJQ5PLZbpZaAoUgcOjoyTB06trw0ydnB/7aPnjymvBc+8Ywet6WMH7x9jBx2dthyoodYdqb74SpK9xkYB8oax9IrgGTlu+I14WxC7eFUR2bYuT+jpeXhl8M6QjXjZgflm3d7+MpCvHbwUpIQAK1EFDkaqHkMRKQQOoEmELJVLnfDJsbhs1YF6dTMkhLBmpvLNkeXl+yPQodUucmA/uAfYBrAhvXB/7QM3n5jvj+pblbwj1jlocfPNoW/yD00YnTqV+zTFACEpBA1ggocllrEcsjgYITYPbTnHV7wo8fnxWnSI1fvC0OyCYsfVtZU1jtA/aBPvcBxA6p4xrCvXO/fmpunHa5++DHBb+aWj0JSKDsBBS5svcA6y+BJhNYuuW98MPH2sOgCaviX9MVOKMsRtrsA2n0gUToXlvwVrjhuYUx4r/vg2NNvsKZnQQkIIHmEVDkmsfanCRQegIsavKrp+aEP766PN7zxsArjQGcacjRPmAfSPoA07NZ+ZaFk1gw6eOTTrMs/S8fAUigoAQUuYI2rNWSQNYInDrzWbj/tRVxQQIWMFHiHHgnA29f7Qtp9wHunRs9d0tcCRep858EJCCBIhJQ5IrYqtZJAhkjwH1xK7cfCN9/ZGZckdLplA7c0x64m559qnsfmNa5MwwY3xluGrkovHf4eMauihZHAhKQQP8JKHL9Z2gKEpDAZQgQjePxAve+ujyuStl9wOXP5RiEJ/cwxUdKdO4M091yxQAxSlaJzMN3lj8YvbbwrXD1sHlxIZTLXKb8WAISkEDuCChyuWsyCyyB/BHYdeBo+O/7p4YxC7bGpcLzMAi0jOnKJYNqRG7I1LXh1lGLw1VPzA7ffWhG+I5bLhh87+GZ4WdPdsQl/sfM35qbP8jMWLkz/P6lJeGRCSvDJ6c/zd/F0xJLQAIS6IWAItcLHD+SgATSIcAgnof1+my4dOUoL7LJ0vAvdGyO9ytd/fTc+BD4ETPXh2fbN8Tl4nkIvFt2GbCkP+3z+KTV4fpnFoQrH2sPT0xZE2Uu6/e6Ev0dPHl1uOX5RWHngaPpXNBMRQISkEBGCChyGWkIiyGBohL47Oy5+Ly4B8d1xohM1gd+eZGjvJQTiUMCfvrE7BjNWbZ1f9h76Fg4fOxUOP7JmXD8lFsuGHxyJrx/5ETYuOuD8PSM9YEI3eDJa+JUyyz3Rfrfi3M2h58P6Qj0Pf9JQAISKBIBRa5IrWldJJBBAqc/PRt+/mRHGD5jfbxPJcuDPsuWbsSQCCwPfCeKw1LwCNyR46fCgSMnwv7DJ+ICFCxC4ZYPBojckWOnwqGjJ8PzszeFnwyeFUa0bYgP487qd4c+yKqVVw2eFdpX7crgFdIiSUACEqifgCJXPzvPlIAEaiDAQiffGjA9/lXc1SrTFaWsDp6TcvE8r6HT1sUplXPW7okSp7TlQ9p6a6eDH50MbAPGdYbbX1wSFxTpkvbs9e9kOjf397FYi/8kIAEJFImAIlek1rQuEsggAUTua3+cEl6Zv9WI3OLsDXQT6WrE69QV74T7Xl0Rfvz4rBiNIxLXmyD4WX4k74OPPwnLt+6PkVamzjKFsRF9qL9pMpWblTZ/MaQjcL+c/yQgAQkUiYAiV6TWtC4SyCABRa5c8lY58Ebk7n5lWVzt8OOTp5W4Ak0jZZolU2V/OKjtwsInlW2fpfesXPnLoXOibGbwEmmRJCABCdRNQJGrG50nSkACtRBQ5BQ5Fpror8hxTx33ZnGP3bGTZ7oWSmGxFLeWMDhx6tPAd5tFT56avi60r94dpy4yffGS7c13AlLPVNtWLHakyNVypfYYCUggjwQUuTy2mmWWQI4IKHKKXH9FjimZrHLJioltq3aFl+duiYttsOCGW2sYjOrYFF6aszn87c3j4jMBuVfullGLLtlufn5RuO2FxeG+V5eHYdPXxahYs6dhKnI5+oVhUSUggT4RUOT6hMuDJSCBvhJQ5BS5/ogci2ogcjyE+p4xy+OjLK4dPi/8ZthctwwwuPG5hXFVUtqEZ0X2tHGP2pWD2uPD4F9d8FZT75dV5Pp61fZ4CUggLwQUuby0lOWUQE4JKHKKXL0ix31Y+z44Fle+5Dl0o+dtCdvePRI+/PgTnz+Xk+fvMQXzoxOnw5a9h8PYhdti9I771Zopc4pcTn95WGwJSOCyBBS5yyLyAAlIoD8EFDlFrl6RQwBGzup6Xtm89XvD0ROn431yPoMuP6tbshJpcn8j9zZ2bj8QFx5hKmbyaIBGL4yiyPXnCu65EpBAlgkoclluHcsmgQIQUOQUuXpEjoVNNu7+IEZwuCeOxVKI0PmIgnxJXGV7IXQ8UHzBhn3hioHTw8hZG6PMKXIFuNBbBQlIoCUEFLmWYDdTCZSHgCKnyNUjckTfWFCDxTIQOhY7qZQC3+dT6LjncffBj8MdLy+N9zuyimWjV7I0Ilee3zfWVAJlI6DIla3Fra8EmkxAkVPk6hG546fOhDtfXhoeGPtmnE5pNC6f4tZduInKsRGF475HRa7JF2Szk4AECkVAkStUc1oZCWSPgCKnyNUjciyScdPIhWHw5NXxOWndhcCf8yt2H3z8SZi7bm/4xgPTFLnsXbItkQQkkCMCilyOGsuiSiCPBBQ5Ra5ukXt+UXhyytq4QmV/xI3HF3DPHatdco+WW2sZnDz9aVi5/UD4j3smhSkrdsRt8vIdodrGQ8R57hwLo9R7L51TK/P4m8MyS0ACtRBQ5Gqh5DESkEDdBBS5+geg9Q5cs3Le1BXvhLtfWRb6I3JPTFlTt8gxhY/oD48wWL/zUFi2dX9caIMVMN1ax2DplvfioyT+5uax4bGJq+M2aOKqUG0jIjti5vowZsHWKHT13E+nyNV9+fZECUgg4wQUuYw3kMWTQN4JKHKKXCtELpG41W8fDMOmr4uLa/x62NzwvYdnhu88NCN8e+B0txYyoA1q2WivKx9rD797dkEYPmN9XTKnyOX9t4jll4AEeiKgyPVExv0SkEAqBBQ5Ra7ZIofEMZVy/oZ94boR88NNzy8Ks9fsDm/tOxJXvuQzt9YzIFp6uXZghUva7p4xy8P3HpkZo3dMwexL1FmRS+VSbiISkEAGCShyGWwUiySBIhFQ5BS5Zosc98Rt2vNh+NHj7fEeO1a8RBrYz3tEzy0fDGgvHj1B2zHF8n8ebQtPz1gfuHeuVplT5Ir0G8W6SEAClQQUuUoavpeABFInoMgpcs0UOQb+bEynvOG5hfGZZUR9+rNYiue2foVM2pBn0A2Zujb8YkhHeG3hWzUvgKLIpX5ZN0EJSCAjBBS5jDSExZBAUQkocopcs0UO8bpq8KwwfvG2OPgn+qaMtV7G+tUGHx6Pq41u3PVBfL7gI2+srDkqp8gV9beL9ZKABBQ5+4AEJNBQAoqcItcKkeMZZQs27ItTKvslEIdzLkAFKj+RViJzPJLi2uHzwrQ336lpeqUi19BLvIlLQAItJKDItRC+WUugDAQUOUWuFSL3rQHTwvKt++Oz4xS54sjo8VNnAo+k+OGgtoCg1XKfnCJXht801lEC5SSgyJWz3a21BJpGQJFT5FolcjyvjIeAK3LFETkeJk5EjkVPFLmmXcbNSAISyCgBRS6jDWOxJFAUAoqcIqfIFUekWi3FJ051idwPFLmi/IqwHhKQQD8IKHL9gOepEpDA5QnUK3LjFm0LbCxY0fP0qW1h7MLkmMr3jZSnrnwu5ls9L8p+uWN6rtelaV7kcelnPaVTzzk9pVXP/qkr3gl3v7IsFEHkWP6eVRN7WziFzziGe7nSFJ4k3WrPXKNcvZUpzXLUkhZlScrZiLIpcpe/5nqEBCRQHgKKXHna2ppKoCUE6hG515dsjyvS8awo3vcmETwceOKyt+NS5LyfsPTtXo/vLa3Lf7Ytpj9lxY7A1lW26qJJmRAZXi+fbu91JJ+knn1Ji7xrYdiXNPtybCJyP3uyI3x88nSf5IYBOw/y5n4o7ouqRSI4JpEo7pFLa2olcsKDqd95/2h498Pq0TWO4TOO2XvoWKpyRbq7DhwNO/Z/FNMnj+Q9nzF9FIGslVFyXKV0vddDvZJja3lNHhHw9nsfha17D4c9h45deH5fLefXcowi15LLuJlKQAIZJaDIZbRhLJYEikKg7yK3LUrZqrcPxMHznHV7zke2usvOtjB7ze44WFy2dX98zyB+0aZ34zOm+iIctR776oK3wuJN7154mHTH2j2X5EUUDsnbvOfDGJno3PZ+DZHF7nW7+DNRNYSIgfzK7QfOp3Xx8+pl7xLO9TsPha37Dp9fpr26cFY//3Lp1/Y55b5nzPLwy6FzwrGTtcsYA/osiRwPpKZd//DS0rD2nUOxXbtLBw8cf3Pb++HWUYvjaoofneibuHZPL/kZOaIvIbTXP7sgXDN8Xrj66a6NlRtZhn/O2j3xe9BXmUPkqA/9pK/nJuVLXom+IZhjFmyNK0r+9InZ4b5Xl4eFG/dFuebz5Nj+vCpyRfnNYD0kIIE0CChyaVA0DQlIoEcC9Ygc8kI0hX+ICIPDzwtH17RLPvv0s7NxIItUHTl2KizZ/N4lctV1bv9FZsz8rWHNOwcv1HXL3sPnH0p8MW3KOn/DvnDms7MXyk99Lp0ievGcz9etUpK6pmeyqMMnpz8NRDp4EPKlx38+LfIjGpdERBDLrjJUpt3490QRB47vDDc+tzAwkE+iZbUM5LMkckjoXaOXhT+9dnQUkyPHT10iJfS9eev3hq/dNyW8NGdzOP5J38S1JyZIJIL43w9MDX93y7hw5aD28OPHZ4XvPzIzXDFwevin378R/uL6MWHw5NUxElgrYwSRqBnCRRv1JerZvay0LX0NRn95w2tR3JHe/7hnUvi/d0wIM1fuilFDxLH7uX39WZG7cPnxjQQkIIGgyNkJJCCBhhLou8htj7LCM6IYQBPpQEo+LyJdokLUg4FuMp2S49743FTMbVECkSsECBG7KEJdnxFlqxQjfua4SvEib/a9PHdLjGCcPXcuCiRT2qZ17vxcmkRu1u08FM6dC+Hs2XNRRLvK3iVzlIWN4y6W5/MiFst6vsyj522JETkGsNvfO/K5vGJZk7QWbA1ddemSXFgwHZABe6tEjjI807YhRmiQ0Ti9ssYpfFkTOSKLf/7bMWHhxndDNZFDUnaej5pue/dI5E7/pP9WygrH0WdJI0rXh8djNOzoidMxCkm9eZ9EsDiWqO5/3js5CjHtiXQl+fEHDOTuC9e+El6cszmmneRH3nyHSJMt+T4xjZK2IMKLHD70+sp4DYh5fng8lr2yPOSHqFYTMfYRzUPa/+Sa0TFqSRn5wwMC+v/umBDFjr7L/qRs9b5SD1atdLGThl62TVwCEsgJAUUuJw1lMSWQVwL1iFwiURt3fRCFiehcpXAhRkxxPP3p2RghQ4qYxsdzw7qWJO+KZCF1HEfkgYEk0bS2VbtiWkgG6RJFSfIjHaJpndsPXJBH9iFCDErJY/XbB2OZGIgyqGRgn8ghxyKgyX1LfM6gnvImMsdUM6bKEV3bsOuDwEA8+QyhJC3KiAwmZaZMRHguilyXFDLtdOPuD2Jam/Z8GPiZtChHFkSOe/toA6YbMiWQOiMTiaT0NpiHXVbukaPMiNz/7kXkqBNtPb1zZ5yqSFvRb+hLiBPCE0Xow+Ox3/EHAI5H6LjfjT9GDJq4Km68TyS8UuSuf2bBhf1IIHkii+TxD7e/Hr73yMz4OfuROPr7Cx2bwyMTVoVHJ6yKf4hgH1JGngjRF298LS5Gw/eG7wnloez0xccmro7nDp+xPvbzau2W1IvzYcR3CmFD7ig70div3Dkxyig/99bmtXymyOX1N4HlloAEGkFAkWsEVdOUgAQuEKhP5LZH2UJMiGp1n1KIrDDQ5a/+DCBfmb81TnkjUkb0gogXg2HkhvyTCAqRBQa43FOE6FRGE5AfhI4BKP8QNPJBrEgTaaQ8DJrJhwExA1MGvchKciyiRn7IWiJySdrci0Q6ycIflAdJ4B4/jkFWETsifRzHYJ33DLyZqvnWviPnhXZbFEvSj1P4PjweozikRVlJJwsihwxQDiKZvx42N97bhaQyDY+yxvKfOhMjTLCo3GiD37+0JAye3PrFTmoROdqctmOq46iOTXGa43cemhHva+P+RuSGDVn6xZCOuLEoCtODEd0v3zo+TstkCiVSxjTFRPSSiFwicpX3s5Em6TCV8R9vfz20r9oV+wSv33t4Zvj3eyYFykFEjymYrCBK3+QeVCJ5f3bdK3H6I8LFHyvozwj0P//hjfDNB6cFFo356xvHhq/eNyW2JX2xmnDxvaIsSCt9lrbljyhI3K+emhPFMX5+uPpiMdXSrLaPdI3IXbi8+kYCEig5AUWu5B3A6kug0QTqFTnEhhUXGRgySEbY2Icw8R6BQeaQqM+J3PYD4aW5W6JwMb2RwTCRNI4jsoVEEVkgWoRYUT6icqSRDIJhwoAbEeE88kHayJuIHP8QNqIaDPJJH3kiTc4j/QUb9sW0yR+xZFD72dlzMS1kBtFEKBnc8pBjFm6hfkgOZSKywTGUad8Hx2KeiBxShDBwDKJHWpSR+5BghQxxTmVUp1VTK+GXyByRoetGzA9XDZ4VB/a8R0x++8z8qttNIxeGr9w1MTzbviHWqdqgvto+mLA/zVUraxU5uP+f370anp6xPrb1zc8vCl+6ZVzsi7Qz0TPaGaEiQkYfvu/VFfEc5IToKhvnkw6RNMSlN5GjvmxMYeUc+hri+O2B06OgEfmj37CoCRE/xO2p6eviHyzor5SPciJ3cEMgmSL5XPvG+IcQRJN+yXEsWpPkV409/Z7P21fvjjLI/YKUg/tWEb1q5/R1nyIXLwX+JwEJSCASUOTsCBKQQEMJ1CtyRMeQI6IECBmDWWSLCBkyRYQKmUKuGLzynugdxzPwZICItCExyA/3o7ERiUiia3PX7Y3via4hf9wzhDQy4GZAykCXgTDpEBXkHiSO5R/5MUClfkTvKAPTKhmwMyWUQT2fIXKUGxkkX4SLYyljl4C+G9NDKvmMKCMyyOfUnzLPWrM71jdJi0gjUoiAUibS41468oQLMpAlkUtkDp4IC9Ej5IHIT08b0bh/uXNCFBTktNYBP+3GsS0RudW741RFpiLS1kyz5B60ETPXR3EiAsz9aETtVry1P/alf71rYrjhuYXxDwX0F9qfPoQ0ff2PU6LY02eJqFWLyFFfjqf9EUT6MRE6Xuk33OuGMJI2/QohYzVJmCZTMlnshCgz6RBBRbp5zzGcR99l2iYLrNAH+axae1AW/uhAn73ysfbYfix2Qj/njwzVpmZWS6e3fYpcQy/XJi4BCeSMgCKXswazuBLIGwEGgl/745Q4mEMukihNLa+IDBEnBqJEGZA7BIcBMcKFpPFzpchxnxwLLzDYZDDNAJKBLQNMXpn2hfAxOCbiR6SAgSp5sXw6xxOFIE/ELImsESFjNcJE5HjMAZEwojVIHkIZ72U7dSZGzBhEU3eiIZSb8pA3ZaPM1D+pHxE5onvkwT+mWjIY5hjElYgf9SUt8uFY6sDAmQheUjfKjvSy6EbWRI66wAvmcEWQe9uQ1B8OaovRozyKHEJGf2N6Iwtz0GdZ5fS/7p8arn56bpQk+i9ihaRxD+Fvhs29sCFACB99gT7Xk8glUbARbRviipEIHH94IILMHyaY5ok8EuFEbrnPD3Gj39Lf/v628eGBsW/GqDACxdRJZI1+xj1yCDXl5166Hz3eHr8b1USOvhhF7cPj8fuANK7ZcTBGX//m5rHxjwz04d4krZbPFLm8/QawvBKQQCMJKHKNpGvaEpBAlJl6RQ4BYmNgyQCOiBOCxCCZCFaXDF4qcgyQETQEoPLhyQgQG4NMpAtZQtoYYCbTHIlmcS8cIkfUhME3nyNgRD0SkWOqJD8jgUTwkC3SZZCLqJFeInJEopJ7iCpFLlnYhHJSLvLjHwPsRORIi7SRwEQKqROPXUDikjol9YQV52flHrmuNur7ow6IZiFBw6avi21fyyCfYxAKXlsdkUPO6Qs8FoB73mhbpgRzvxkRL9qPtiWKhigxpZF75dhue2FxjFoiUvTH3iJy3C9HP7j9xSVRyviOkC/cmJpKVBMhJgI6YFxnzJ/XaiLHefQ1pkMikdxbx9RXyoZIkg59kOO6twcL/LAhrAgd/R0GpMeUT6Z1JtLZ/dy+/KzI+UtFAhKQwEUCitxFFr6TgAQaQKA/ETkkgGgb0S8GvkybZKVH0kToEKHkmGRqJRE5olEMNtmI+iCD7CMihCBwnxKigywhPUlUDWFjmiTHI05EunglwkVeTBGrFDl+Jj8Gl0Q/GLwyrRLBS0QOsaIODHCRQwa2ROLIg/w5jmltCCPvmRrJipXkR1SEY6kD55IW+1mQAgZMDUUGkrpRJ9JAFosgcggO93NR91oH+40WOfoL5UGgKjemMHJvGJErplbSJ/gcCWP6JFGv219YHCNyCD99jr6I2CFWSBARPP4wwMY9bfQl+nByj9zvnl1woU8m/Zt86XssdPLdh2ZEkSWKTbpE+DiXfkP69F0igPePXXFB5L582/iYP98v/iiAPCNxpEE5KRP3z/3Po21xamV3kYu8PzwevxusWpl8Tn+njnzX/vbmcTEP2jBG7fqx4Iki14CLtElKQAK5JaDI5bbpLLgE8kGgvyKHqDAdj4EhG1O/mGaJqCA63UWOgSsiRaSNaYaIFmkgQJzDYJUBJlE3BIv70hgUU04GmQxgOZbjkCr2J2lUEzmifwymkUAiawxco6Ct64rIRZGbv/XCs+UYdBOho+wIGANfyokgIJoM/qkjkRXKQf2QAf6RFvf7Md0ukT+EsPI4opUwIG2EgLpRxoQV6eVhQ3hvGdUVRaK9qUctMtdIkeM5ciw0Qz9E7tmIhPKK8HcXOfoTAsU9PaZ7DwAAIABJREFUcKwCyQqOyA7THqlPIkgsCsIfKZgSSV8iCodQcZ8Z02XpM6wayfRL+gsRuCQCS6QPYaNsTK9EyJ6fvenCgiXcS4n8UOYhU9eGL1z3SpwuyXeAezwROSJu/Iw8EsHj/jzype9TJr4jRNUoD32wsi3gTdrcB/hXN7wWF6ehD8OD4xBY8qT/8R3h2FrasadjFLl8XPctpQQk0BwCilxzOJuLBEpLoL8iF0WtIhIGSAagibzEz89H7fiMQS8ihwgxoOQ+OSJYRCOILjCwRdISmULy+Jl/iSCyj4E1/5LpYQxEETSmdPIP8ULsECkG8vxj4JqUh2gZskXalJUoGYNj5JB9lAfRSiIhiBdiiaTBjIEweTFwRxD5x3mUIRFS7pNjUE9aDLCpK3UmL9JDIhg851HkKD9iglQQZUQoehrcV+5vhMgRgWOBFlZzRGaIjLHqJhtyxbRFIrlIHscgTPQbpAWZoy7sR4aIJNNP+Iy2oc2JWF0xcHoYOWtT7Ls/fWJ2lCLSQbDoizxGgHvNyO/6ZxfERzkQJWMxFaJsyBh9ARHkjxTcY8ejDOjLTOnkvjimR1IOmDIdmH7DFFTuk3tw3Jtx+idSSDlZOZP68EqdifAhnCw0ROS5kjl9DvlkKiZpPTFlTfx+3fHy0ngefLoLYOX5fXmvyMVLgf9JQAISiAQUOTuCBCTQUAJpiBwiRLQD8UG2mGrIADWJLPE5g04GhAyo+ZnPiSQgcUhREgVh2iIihIAl0oUYMuBGzhA2Nqa9kR7Ty/iZ45nmyDHIAoPlZIokC6IgTURHkggZIsnUTAa+SZos8kF6DIST8rAgxMXoYlfe3H/HQJ9jKBcDbupBWtSLjSgldUEKOI46In0JG+SBaagMoDk2qW/CLOuviDbl5vlz3DNG/ZEPpKG3gX8jRA7hQrJ+/PiseJ8YUz65XyzZeDYb7c0fEZAkIqsIFeWkvCyGk9SDPpGUkVfal7ZhIRGibsgWgjZy1sYo/onQI2oIFXlW5s+qn7Q1fyQgLfpN8gcFVpokPVa/RAAR/LtfWRajghxH+Vj1lOgfIkk/JprLYixJWciLY4gEXzt8Xuz/3UWOtKgnq2DyPDoWdCFfJJGFVoiOdz+ntzbs7TNFrqGXaxOXgARyRkCRy1mDWVwJ5I1AGiLXJR1dIpXI06Ui0vV5l3R1TR/kPVLHwDqRN37uLjUcR7qVcsgx7Os6/uJ0xOTY7vn0dH73NEkPSekqz/bzeV6UUurVdc62zx3DedXS4njSoo58Xlkufu5e/ku5Xaxb1j5DUBAIZIKoDhKNNDCY72ljaimfsWAHxyNCvYlBTZ99eDzKESKJ1F2ynRduxIzPECnEKkk72c+U2USgks/4OZEcxBxZT+7NjMd+2LWAC7J+Sb6U5fw0zUQOk3SpN3/4ID2EHtFK/oCQMCF99hOpZqom+SbRQv54wB8Z2Md5bOTVPZ8kP145l43HYzAdmAgyeSGYlcf1570il7ffAJZXAhJoJAFFrpF0TVsCEojTBOtftTItyeiKqHUXuNaJSy3lqeUY+NR6XFosm5sOkko0jIgVUw6JTD0+aXVcDZLX7hurRLKPqYVElxJp6Y88JOciPj1tlcck7ytfk/Mq91W+R5CQKrZqspScX+21Mp3K95Vpch6fJecnx/EzxyXRPPZXnldZliSN5NxqrxxDHRC6yjSrHVvPPkXOXyoSkIAELhJQ5C6y8J0EJNAAAulF5JorEK2TPOvZnT0yR6Txj6+tiFMXmWJ4uY37zogKpSly9YiH51yMTKbBQpFrwEXaJCUggdwSUORy23QWXAL5IKDIKWbdxayen5k6yqIt3LvI4h09bdwXyTH/cc+keM+iIpeuSKUhY/1JIxE57iOkD9TSlziOexf5g4D/JCABCRSJgCJXpNa0LhLIIAFFTpGrZbCd1jHcf8h0U57dxmqPilyxRI4VRFkVk6m2CHst/UaRy+AvBoskAQmkQkCRSwWjiUhAAj0RUOQUuVoG22kdk4jcNx+clvo9cv2JJHlu/4UyWTSFZ9PxmARWaK2l3yhyPV2d3S8BCeSdgCKX9xa0/BLIOAFFTpGrZbCd1jFdIrc9PmeN6Zg9LR6iWPVfrJrNkOgqz1a8aeTC+BgFHqdQS79R5DL+S8LiSUACdRNQ5OpG54kSkEAtBBQ5Ra6WwXaaxyBwj05YFe+LYil8lu6vXH2x2QJifv2XRlbB5PEL8bl3j8yMrzyeopZ+o8jVcqX2GAlIII8EFLk8tppllkCOCChyilwtg+00jyEqxzP0eLA1jysgisOy+D0+i63as+HcV/25dS3gQrvxPDsWu+Gh7PeMWR4fbl5rn1HkcvQLw6JKQAJ9IqDI9QmXB0tAAn0loMgpcrUOuNM8jqjcCx2b47PnfvZkRxg5a2O8p2ruur1hzro9bjlhQHt1rN0TI6w85J1HUCDqyRTaWvqMItfXq7bHS0ACeSGgyOWlpSynBHJKQJFT5GoZbDfiGKbeEZkbML4zrnLIIwnc8seARw3c/Pyi8Gz7hkCb9kXi6FeKXE5/eVhsCUjgsgQUucsi8gAJSKA/BBQ5Ra4RklZrmgz6GfzzDDG3/DKgDYmy1trulccpcv25gnuuBCSQZQKKXJZbx7JJoAAEFLn6Bp+VA1Hf959hMh3P165piXnj0J/vgCJXgF8kVkECEqhKQJGrisWdEpBAWgQUuf5LSH8GsZ4r/7L3AUUurau56UhAAlkjoMhlrUUsjwQKRkCRUyTKLhLWv7XfAUWuYL9UrI4EJHCBgCJ3AYVvJCCBRhBQ5Fo7iFUi5F/2PqDINeLKbpoSkEAWCChyWWgFyyCBAhNQ5BSJsouE9W/td0CRK/AvGKsmgZITUORK3gGsvgQaTUCRa+0gVomQf9n7gCLX6Ku86UtAAq0ioMi1irz5SqAkBBQ5RaLsImH9W/sdUORK8svGakqghAQUuRI2ulWWQDMJKHKtHcQqEfIvex9Q5Jp5xTcvCUigmQQUuWbSNi8JlJCAIqdIlF0krH9rvwOKXAl/8VhlCZSEgCJXkoa2mhJoFQFFrrWDWCVC/mXvA4pcq67+5isBCTSagCLXaMKmL4GSE1DkFImyi4T1b+13YHrnzvDLoXPCxGVvl/xqbPUlIIGiEVDkitai1kcCGSOAyH39j1PCmPlbw4SlbwcHta0d1Mpf/mXqA68v2R4F7hdDOsLUFe9k7OpocSQgAQn0j4Ai1z9+ni0BCVyGACL33YdnhBc6Nityi5WIMkmEdW19f39jyfbw6oK3wlWDZ4VZa3Zf5mrlxxKQgATyRUCRy1d7WVoJ5I7Amc/OhquHzQ1Dp64NDKr4C7kDXBnYB+wDzegDTKcc1bEp/OzJ2WHRpndzd/20wBKQgAR6I6DI9UbHzyQggX4TOHv2XBg4vjPc++oKRc6InBJvH2hqH5i8fEd4Ysqa8LtnF4Tt7x3p9/XMBCQgAQlkiYAil6XWsCwSKCiB2Wt2x8UGiMYRlWvGX+LNQ872AfvAtM6d4Y6Xl4ZHJqwKzA7wnwQkIIEiEVDkitSa1kUCGSVw8KOT4ZsPTotTnFzwxMG1gmUfaEYf4FozbtG28PMhHfGPRxm9PFosCUhAAnUTUOTqRueJEpBArQT4Szh/Eb/1hcVxBTnvk3Mg34yBvHmUu5+xSiXXnWuHzwu7Dhyt9XLlcRKQgARyQ0CRy01TWVAJ5JvAjv0fhe89PDOMmLkhcN+Kg+xyD7Jtf9u/kX2ARU5YrfJnT3aEl+ZuyffF09JLQAIS6IGAItcDGHdLQALpEiAqN3JW1+px4xdvi5G5Rg7kTFtRsA+Usw8wpRKR+8NLS+MiJ4eOnkz3YmZqEpCABDJCQJHLSENYDAmUgQADqtteWBwHVxOX7QiTYmRum9E5VzK0D9gHUukDLKbElEpWyv3hoPbQue39MlxaraMEJFBSAopcSRveakugVQSYYnnN0/PCraMWhdcXbw/T3nwnlQGc0ZdyRl9sd9s96QNE4Zi2PWBcZ7hyUHuY3rmzVZc585WABCTQFAKKXFMwm4kEJFBJYMvew+GG5xaGq5+eG0bN3hz/gs4gLBmQ+erg3D5gH6i1DxCF4w9Cry18K/z+pSXhx4/PCjNX7qq85PheAhKQQCEJKHKFbFYrJYHsE9j3wbEwePLq8KPH2sOdLy+Ng7AZK3dekDpXtnQgX+tA3uPK1Ve4NnAfHNE3om68Zyrljx6fFa5/dkHo3H4g+xdASygBCUggBQKKXAoQTUICEqiPwOlPz4b21bvDfa8uD1c+1haXCX980urw4pzN8cHhPMyXgZqbDOwD9gH6ANcEBG7M/K1hyNS14eaRi2IE7roR8+Mfg947fLy+i5FnSUACEsghAUUuh41mkSVQNAKHj50Kc9buiata3jV6Wfjl0Dnh+4+0xftcuNfFTQb2AftA7AOPtYcfPNoWfjJ4Vrhx5MIY1Wdxk7ff+6hol0XrIwEJSOCyBBS5yyLyAAlIoFkEzp0LYe+hY2H9zkNh2db9YcGGfWHe+r1uJWdAlPaLN74WfjNsbpi9Zrf9oeT9Ycnm98Lqtw9GeTtx6tNmXZ7MRwISkEDmCChymWsSCyQBCUhAApUEFm16N/zdLePCw2+srNztewlIQAISkECpCShypW5+Ky8BCUgg+wS4j/JLt4wL949dEbiv0n8SkIAEJCABCYSgyNkLJCABCUgg0wQUuUw3j4WTgAQkIIEWEVDkWgTebCUgAQlIoDYCilxtnDxKAhKQgATKRUCRK1d7W1sJSEACuSOgyOWuySywBCQgAQk0gYAi1wTIZiEBCUhAAvUTUOTqZ+eZEpCABCRQXAKKXHHb1ppJQAISKAQBRa4QzWglJCABCUggZQKKXMpATU4CEpCABNIloMily9PUJCABCUigGAQUuWK0o7WQgAQkUFgCilxhm9aKSUACEpBAPwgocv2A56kSkIAEJNB4Aopc4xmbgwQkIAEJ5I+AIpe/NrPEEpCABEpFQJErVXNbWQlIQAISqJGAIlcjKA+TgAQkIIHWEFDkWsPdXCUgAQlIINsEFLlst4+lk4AEJFB6Aopc6buAACQgAQlIoAoBRa4KFHdJQAISkEB2CChy2WkLSyIBCUhAAtkhoMhlpy0siQQkIAEJVCGgyFWB4i4JSEACEig9AUWu9F1AABKQgASyTUCRy3b7WDoJSEACEmgNAUWuNdzNVQISkIAEaiSgyNUIysMkIAEJSKBUBBS5UjW3lZWABCSQPwKKXP7azBJLQAISkEDjCShyjWdsDhKQgAQk0A8Cilw/4HmqBCQgAQkUloAiV9imtWISkIAEikFAkStGO1oLCUhAAhJIl4Aily5PU5OABCQggZQJKHIpAzU5CUhAAhIoBAFFrhDNaCUkIAEJFJeAIlfctrVmEpCABCRQPwFFrn52nikBCUhAAk0goMg1AbJZSEACEpBA7ggocrlrMgssAQlIoFwEFLlytbe1lYAEJCCB2ggocrVx8igJSEACEmgRAUWuReDNVgISkIAEMk1Akct081g4CUhAAhJQ5OwDEpCABCQggUsJKHKXMnGPBCQgAQlkiIAil6HGsCgSkIAEJJAZAopcZprCgkhAAhKQQDUCilw1Ku6TgAQkIIGyE1Dkyt4DrL8EJCCBjBNQ5DLeQBZPAhKQgARaQkCRawl2M5WABCQggVoJKHK1kvI4CUhAAhIoEwFFrkytbV0lIAEJ5JCAIpfDRrPIEpCABCTQcAKKXMMRm4EEJCABCfSHgCLXH3qeKwEJSEACRSWgyBW1Za2XBCQggYIQmLNuT/i7W8aFAeM6C1IjqyEBCUhAAhLoPwFFrv8MTUECEpCABFIksPfQsTBp+Y4wY+XO0L5qV3jo9ZXhr254LfxiSEeYsmJHmLlyV1j7zqEUczQpCUhAAhKQQP4IKHL5azNLLAEJSKDQBFa/fTB87b4pMQr35VvHhy/e+Fr402tHh7+4fkz40i3jwj/9/o0wduG2QjOwchKQgAQkIIHLEVDkLkfIzyUgAQlIoKkEjp08E24ZtSj8yTWjq25Ms9y693BTy2RmEpCABCQggawRUOSy1iKWRwISkIAE4pTKv7zhtaoi9/MhHeHcOSFJQAISkIAEyk1AkSt3+1t7CUhAApkk8OHHn4Srn553icj9+W/HhNHztmSyzBZKAhKQgAQk0EwCilwzaZuXBCQgAQnUTGDMgq3xvrjKKZbcM7dj/0c1p+GBEpCABCQggaISUOSK2rLWSwISkEDOCbz74fHww0Ftn4vK/XLonHDms7M5r5nFl4AEJCABCfSfgCLXf4amIAEJSEACDSIwdNq6wHTKJCrHapXeH9cg2CYrAQlIQAK5IqDI5aq5LKwEJCCBchFgGiWPIkDk/vbmceGd94+WC4C1lYAEJCABCfRAQJHrAYy7JSABCUggGwTuHbM8ityvh80NJ09/mo1CWQoJSEACEpBAiwkoci1uALOXgAQkIIHeCazcfiD8/W3jw5j5W3s/0E8lIAEJSEACJSKgyJWosa2qBCQggbwSeGDsm65WmdfGs9wSkIAEJNAQAopcQ7CaqAQkkDUCuw4cDS/O2Rxuf3FJ+M2weeFHj7WH/3m0zS0HDFi58t/unhS++9AM2ysn7fXTJ2aHa4bPC/e9ujxMffOdcPjYqaxdEiyPBCQggdwTUORy34RWQAIS6I3AtnePhDtGLw3fGTg9XDV4drhp5MJw1+hl4f6xK8KA8Z1uMrAPpNwHHhz3ZhS437+0JD7UHRH/1oDpYfCk1eHQ0ZO9fV39TAISkIAE+kBAkesDLA+VgATyQ+DTz86G15dsD1cMnB5+MaQjDJq4KrCU/dMz1ocRbRvCs+0bwnPtG+Mr791kYB/ofx9IvlPPtG0II2auD09NXxeGTl0bkLsfDGoPPxk8K6x951B+LiSWVAISkECGCShyGW4ciyYBCdRHAIkb1bEp/Od9k8PdryyLA0rkjYHl8BldG0LnJgP7QOP6QPJdi9+9tg3x+/a7ZxeEKwZMD+t2KnP1Xd08SwISkMBFAorcRRa+k4AECkJg5spd4ZsPTgt/fG1FGDlrY5Q3B+yNG7DLVra19AH+kMJ2/bMLwlVPzA5HvG+uIFdcqyEBCbSKgCLXKvLmKwEJNITA3kPHwi+Hzgm3jFoURs7aZNTNyKN9IEN9gOjcsOnrwg8ebYtTLhtyETBRCUhAAiUhoMiVpKGtpgTKQuDVBW8FFldgsMhf/2uJFHiMnOwDzekDTLfk/jmi5d9/dGY4euJ0WS5N1lMCEpBA6gQUudSRmqAEJNAqAqyId9uLi8OtoxYbjctQFEZJao4k5YUzUbknpqwJVz7WFmau3Nmqy4X5SkACEsg9AUUu901oBSQggYRA5/YD4TsPzQiPTlgVV6bMy8DWcio6ZeoDROVYQfba4fPCwNc7k6+vrxKQgAQk0EcCilwfgXm4BCSQXQILN+4L3x44PUocg8UyDY6tq+2dlz7Ad5Npz7e9sDjcOHJhdi8olkwCEpBAxgkochlvIIsnAQnUTmDe+r1R5Hj0QF4GtZZTAStjH+CZfXeNXhZ+M2xu7V9wj5SABCQggc8RUOQ+h8MfJCCBPBNQ5JSiMkpRHuvMY0HuHbM8rjCb52uOZZeABCTQSgKKXCvpm7cEJJAqAUVOkcuj1JSxzIjcfa8qcqleAE1MAhIoHQFFrnRNboUlUFwCipwiV0YpymOdFbniXoetmQQk0DwCilzzWJuTBCTQYAKKnCKXR6kpY5kVuQZfDE1eAhIoBQFFrhTNbCUlUA4CipwiV0YpymOdFblyXJOtpQQk0FgCilxj+Zq6BCTQRAKKnCKXR6kpY5kVuSZeGM1KAhIoLAFFrrBNa8UkUD4CipwiV0YpymOdFbnyXZ+tsQQkkD4BRS59pqYoAQm0iIAip8jlUWrKWGZFrkUXSbOVgAQKRUCRK1RzWhkJlJuAIqfIlVGK8lhnRa7c12prLwEJpENAkUuHo6lIQAIZIKDIKXJ5lJoyllmRy8AF0yJIQAK5J6DI5b4JrYAEJJAQUOQUuTJKUR7rrMglVy1fJSABCdRPQJGrn51nSkACGSOgyPVP5IZNXxd62vIiC0n581LespZTkcvYxdPiSEACuSSgyOWy2Sy0BCRQjYAi1xiRe2r6ujB02rrAa9bFo7vI8XMeyp11rmmXT5GrdgVznwQkIIG+EVDk+sbLoyUggQwTUOTqEzkk7aW5W8L8DfvitnDjvnBxezfMXrM7jF24LYxo25BZKULYnm3fENpW7QoTl70dRsxcH6OLw2esD0hD2iJievX1tYSbIpfhC6lFk4AEckNAkctNU1lQCUjgcgQUufoG14Mnrw7TO3eGs2fPhU9Ofxo+OnE6HK3Yjp86E858djas23koPNO2IQpSMiDPyisy+uKczeHdD4+HNe8cjNKJ3CGnG3Z9cGHKaFbKW/ZyKHKXu5r5uQQkIIHLE1DkLs/IIyQggZwQUOTqFzkiWfxb+86h8PzsTeGV+VvjNnreljB1xTth3wfHoszBuHKqIu+fnLI2PDFlTXxFqColhZ+HTl0bz0mOG3L+58rjeH+5tDiG9JJ0eE3ySyJyM1d2ReRIiwjikeOnwt5Dx2L5kmO7p9O9PKRFmWPZp62L53JMsq9aufmc87p/5s/V+6Qil5OLqsWUgAQyTUCRy3TzWDgJSKAvBBS56oPmy8kEETkEiH/Ltu4Pj01cHaUKGUrkCrEjYrfzwNEoOInsIEvjFm0LU1bsCK8v2R6ea98YEqlhWuMLHZvDqI5NcapjchzTNOP5FdKHJDEdkmMmL98R3liyPU6JTNKiDhxD+uMXb7+Q38hZmy7IHPkRlUNEOZ7jiCYeOHIiSinnUh/SoUwTlr4d83pt4VuBcxE3ykU5mGqKbJAWx7264K2YBudV8uR4pnSOmb81Hs/PlZ/7vnqfVOT6cmXzWAlIQALVCShy1bm4VwISyCGBJZvfC98eOD0O0h1AVx9AV+NSKXJLt7wXHp2wqiv6NHVtlDI+f3nulihyuw9+HIUHwUJ2mLZ45NipC9vWvYfj/XRRzNo2BNLb9u6RsOKt/eHgRyfDhx9/Eg4fOxXe3PZ+FCDkCbkiLaZuJmkxtZPzxi/eFvPjGMqwac+HF9Igne3vdR1DdA7J2rrvcMzzpTmb4/uz586F05+eDW/tOxJFk3JzD92uA0fDxydPx/xIZ9XbB+L5pIMMbtz1QSwPZeDfjv0fxW3L3sNR2BLpo1xz1u0JcEFQqXc1xu77fH9MRO7Xw+bm8EpjkSUgAQlkg4Ail412sBQZIcCgb8+hY3FwmAzcfO0awGadAwNzoiaK3OcHzLUIRKXIrX77YBQsRCjZiI69/d5Hge/Hgg374tRGolv0iVNnPotSRkSOBVKQo/c+PB4jWUS2mKrJv0NHT8ZzJy3fEeXv3Lmu6B8iRETrnfePhs/Ongud294P0958Jyzc+G5M64OPP4nRLgQLSSR98iGdxZvejfmTH5FBon+I4sbdHwQidR1r98R7/pDD9lW74j6idKTBcdw/N61zZ7ynjrohiQgaUrn/8IlAGZlSimDOWrM7bN7zYSwjETqELYnsvXf4eLw3L8uLwdTSD5p5TCJyVw5qj1HerF9f0ioff3jgPk7/SUACEkiDgCKXBkXTKAQBFnNgMPqjx9vDfz8w1S1nDK4YMD185c6JityM+kRuxsqd8Xt8/JMzUWKYjoigcH8ZInTy9KdhzY4uyRs8eU1oX707ih1S9fAbK2MUj1e+Q8gd01wRG0SOiBhRq8cnrY73mzH9kCmaCBWySN5M2yRKx712bEzvZD/fy87tB2KUi0VYkDbOHzi+M6aHiBH1Q9wQOYSRaBpSwnRJ7pEjWkbenIesUT6icoMmrgrUBSFbv/NQzAtppUykQ/mY6vnIGyvjcUjgiVNdHJBUykk61I8ykFYzZSjPeSUi98UbXwvfGjCtNNfbbzwwLVz1xOwwZ+2e2OcL8cvTSkhAAi0joMi1DL0ZZ40AA7dfDOkIf3LN6Dio4C/F//Nom1tOGCDgX71viiLXT5FD3lZuPxCjUESn+Yfcsaol4oD0IERMRSRihWSxUArRLx5TgMAhNkTwiLQx9ZLvFtMViXaRBtE1psEiadwPh+whTWMWbL1wDMdyPuJGBINpk0Ta+Ef0lamaLMKCUCFkcarneQFD5JA4oobIX7LYCVMzKQvRPyQzKQ+v3N/Hip3Lt+6PETkidggg6RA1ZKPe7ENsEUf2wYFpoNwjl6SXZ8FqVtkTkfubm8eGKx8rx7WW3ylf/+OU+DvmpucXxT4fO7T/SUACEqiTgCJXJzhPKx4BBowMKP7t7klh0aZ3YzSCAaRbPhgwFY5oilMr64vIJYudXLhHbtq6KCtMdUTkkK24IAiLkpyPtHEVQIyI3nH/W/KKPCFTiBivydRHRCiRQSISRPnIl/vaOIeIGnLEMRzLhrRxDxtRMhYeQZyQPv4hXqQ9d93eeCyySHmqiRzRMhY1oS5MkUS6kvKQJ9NySY+oI1Mrk/vvKqNsSCzTMYnoMbUTuWTqJ/ff8VmzJKgI+SQixx9g+O6W4TrLH0mIZP/j7a+Hq5+eF/tY8X6TWiMJSKCZBBS5ZtI2r0wT4Jcsg4r/un9qHDxmurAWrioB7plS5PoncqxamUxDJMpFxIsIFv+IoiXCgtghPggZgkREi43ph/yMVPHMOaJo7x85ERcISSSNiBxtReSOqZiIF3LGow6SqBaviCD3qDHQJz3KhcQQ/SIah2QeO3kmihWRPSJwvYkcK28iaEQLqVdSHvKi3NSHSF8icggmUzwTceJ4ZJPpmkzRREKZakkkMuGSHOtr7/0wEblfPTWn6ne5qDvp60wBv2b4vBjZLWo9rZcEJNAcAopcczibSw4IJCLH1Bf+wu6//BHw8QO9D557kovKxU6YWsjPybEICmKGsLCUP+8RKhY9YYEQRK5TkhnuAAAgAElEQVTrHrLVcT8SxKIkRB4QOe494zxEi3vKSA9xYvEI0kTemJZJlIv76JBHPicSRtSLqB1pcBzyREQsuYeOchKN4x+Lo5Bfd5Fj2iNTK5FHIomsQpnc+0YeSXmIRFIGppAS/UP4uA4k8ggPInjIHOUgskdaRCGRkiS6l3Dztfe+mIjcL4eWS+RYTOhf7pygyOXv14sllkAmCShymWwWC9UKAopcK6inm6ci1/vguSe5QIiSB4Kz4EilyCEoiBXixj/uEUNmiG4RaUPSWNGRe8ZYfp/76pJ734h6MVWRe+k4j4VDOI6oH8dwfx3pE+ViiiKCRZSLQT4RMqbbEbVD6MiTyBzyxwInHMM9b0TNiKQhiuzj3jZEi2mgidiRLhE8InwsoMLqmEQZkVLKg0iSLtcAyozIIYCsMFgpcvCjHEQRKdenn50NDMyRQUWub31PkTMil+7V39QkUE4Cilw5291aVyGgyFWBkrNdilzfBtOJ2BGZQo6ISDHlsfK+MI5B5Ji2yEqTRKIQN45hGX7uUWMf4sM0R+51S+5ZIwLG0v3IHoLHMUgVP7OfwTxpszEtk+8gaXEMaREVY9oi8oQssUIkEbDK/EiTMpMGQshUTOQRIaPsRBgRPcpFuYn4EdVjeiR5xPJ8ciaKJvfJEe0jqoikMi20UmoTkUMQuScQXtyXSfkSlr7W1gcVOUUuZ79eLK4EMklAkctks1ioVhBQ5FpBPd08FbnaBtHdZQMRYSERIl9Eo6qJCREn7lPjGISHY9gYkBMNI6pFVI8oGfsRL4SHe4KQHlakRMSYPom0Vd6jRnkQMdIicsZ0TSJniBn7k2hXkh/TH0mHZ8Nxv1xSFsSRqB/RwmS1SfaRL2VD0EiP45mqyT7SoU6UNcmL9zyIPEk74cV5iCA/E2EkYti9HsmxvvbeFxU5RS7dq7+pSaCcBBS5cra7ta5CQJGrAiVnuxS53gfPvckFsoSoJNJU7dhEmCqPSfZVviZpJSLHfWtIGRKUHFeZRpJX8lnla/fjKj9L3lcew77Kn3nf/bjKfclnvCbl4LV7OuxjaiaRSR5YzlRMnqFX7bjKdHxfvU8qcopczn69WFwJZJKAIpfJZrFQrSCgyLWCerp5KnLVB82tkAkEB5HjHjamP8ZoWIr3klXKWn/qV2s6ROsQOBY44f44ppQmz5LrT/5lPVeRU+TSvfqbmgTKSUCRK2e7W+sqBBS5KlBytkuRy47IIUhMO+QeN5b0z7v0IHJM0eQ+QRZBYTEW6lirCJZV2HqqtyKnyOXs14vFlUAmCShymWwWC9UKAopcK6inm6cilx2RSwbwLPvPwihFEB7qwPRKpI57AJM6+tr3fqfIKXLpXv1NTQLlJKDIlbPdrXUVAopcFSg526XI9X1ArYT0jZn3xPWNV0/9S5FT5HL268XiSiCTBBS5TDaLhWoFAUWuFdTTzVORS2eQ3dPg2/3yTasPKHKKXLpXf1OTQDkJKHLlbHdrXYWAIlcFSs52KXKKRlqiYTqN7UuKnCKXs18vFlcCmSSgyGWyWSxUKwgocq2gnm6eilxjB9/KjXzT6gOKnCKX7tXf1CRQTgKKXDnb3VpXIaDIVYGSs12KnKKRlmiYTmP7kiKnyOXs14vFlUAmCShymWwWC9UKAopcK6inm6ci19jBt3Ij37T6gCKnyKV79Tc1CZSTgCJXzna31lUIKHJVoORslyKnaKQlGqbT2L6kyClyOfv1YnElkEkCilwmm8VCtYKAItcK6unmqcg1dvCt3Mg3rT6gyCly6V79TU0C5SSgyJWz3a11FQKKXBUoOdulyCkaaYmG6TS2LylyilzOfr1YXAlkkoAil8lmsVCtIKDItYJ6unkqco0dfCs38k2rDzzTtiHc+fLS8Jthc9O9CGQ8tdVvHwz/cueEcM1wRS7jTWXxJJALAopcLprJQjaDgCLXDMqNzWPhxn3higHTA4PE4TMcdKc16DYd+1KafYDvJttNzy8Kt4xa3NiLQsZSV+Qy1iAWRwI5J6DI5bwBLX56BBS59Fi2KqU1Ow6G7z88Mzw2cXUY0bYhpDn4NC1lxj6QTh8YMXN9GDp1bfjlkI7w5JS1rbpctCRfRa4l2M1UAoUloMgVtmmtWF8JKHJ9JZa94w8dPRluf3FJuPn5RWHkrE2KnFFJ+0AG+wAR88cnrQ7ffXhGeHPb+9m7kDSwRIpcA+GatARKSECRK2GjW+XqBBS56lzytPfcuRDGLtwWvv/IzDh1i7/8G0WRgX0gO32AKZV8L28ZtSj8aujc8OlnZ/N0iel3WRW5fiM0AQlIoIKAIlcBw7flJqDIFaP99xw6Fn4zbN6FqJz3ymVnEK9Q2RZE4wZNXBW+NWB6mLNuTzEuOn2ohSLXB1geKgEJXJaAIndZRB5QFgKKXHFaumPtnvCdh2aEe8csj1MsjcwpEEpka/sAf1B5tn1DGDJ1bfjuQzPCQ6+vDGcJoZfsnyJXsga3uhJoMAFFrsGATT4/BBS5/LTV5Up69uy58NLcLXEFy7tGL4tTuRhEsgCKEbrWDugVqnLx548oROH47rEI0fcenhGnVR45fupyX+NCfq7IFbJZrZQEWkZAkWsZejPOGgFFLmst0r/y8Mf+CUvfDlc+1h5+OXROjAAQDWBAycOI3WRgH2hsH+CPJ09NXxcXNrn9hcXxDysPvd4ZPjpxun9f7hyfrcjluPEsugQySECRy2CjWKTWEFDkWsO90blu3Xs4Pnj4Z0M6wrXD58VnVxGlu2fMcjcZ2Aca1AfufmVZXEH2mqfnhZ8/2RGufnpuaF+9u5TTKSuvcYpcJQ3fS0AC/SWgyPWXoOcXhoAiV5imrFqRt/YdCS/P3RKQOISOgaWbDOwDjekD1wzvWnCIKPjyrftLtzpl1YtQCEGR64mM+yUggXoIKHL1UPOcQhJQ5ArZrFZKAhKQQGYIKHKZaQoLIoFCEFDkCtGMViINAopcGhRNQwISkIAEeiKgyPVExv0SkEA9BBS5eqh5TiEJKHKFbFYrJQEJSCAzBBS5zDSFBZFAIQgocoVoRiuRBgFFLg2KpiEBCUhAAj0RUOR6IuN+CUigHgKKXD3UPKeQBBS5QjarlZKABCSQGQKKXGaawoJIoBAEFLlCNKOVSIOAIpcGRdOQgAQkIIGeCChyPZFxvwQkUA8BRa4eap5TSAKKXCGb1UpJQAISyAwBRS4zTWFBJFAIAopcIZrRSqRBQJFLg6JpSEACEpBATwQUuZ7IuF8CEqiHgCJXDzXPKSQBRa6QzWqlJCABCWSGgCKXmaawIBIoBAFFrhDNaCXSIKDIpUHRNCQgAQlIoCcCilxPZNwvAQnUQ0CRq4ea5xSSgCJXyGa1UhKQgAQyQ0CRy0xTWBAJFIKAIleIZrQSaRBQ5NKgaBoSkIAEJNATAUWuJzLul4AE6iGgyNVDzXMKSUCRK2SzWikJSEACmSGgyGWmKSyIBApBQJErRDNaiTQIKHJpUDQNCUhAAhLoiYAi1xMZ90tAAvUQUOTqoeY5hSSgyBWyWa2UBCQggcwQUOQy0xQWRAKFIKDIFaIZrUQaBBS5NCiahgQkIAEJ9ERAkeuJjPslIIF6CChy9VDznEISUOQK2axWSgISkEBmCChymWkKCyKBQhBQ5ArRjFYiDQKKXBoUTUMCEpCABHoioMj1RMb9EpBAPQQUuXqoeU4hCShyhWxWKyUBCUggMwQUucw0hQWRQCEIKHKFaEYrkQYBRS4NiqYhAQlIQAI9EVDkeiLjfglIoB4Cilw91DynkAQUuUI2q5WSgAQkkBkCilxmmsKCSKAQBBS5QjSjlUiDgCKXBkXTkIAEJCCBnggocj2Rcb8EJFAPAUWuHmqeU0gCilwhm9VKSUACEsgMAUUuM01hQSRQCAKKXCGa0UqkQUCRS4OiaUhAAhKQQE8EFLmeyLhfAhKoh4AiVw81zykkAUWukM1qpSQgAQlkhoAil5mmsCASKAQBRa4QzWgl0iCgyKVB0TQkIAEJSKAnAopcT2TcLwEJ1ENAkauHmucUkoAiV8hmtVISkIAEMkNAkctMU1gQCRSCgCJXiGa0EmkQUOTSoGgaEpCABCTQEwFFricy7peABOohoMjVQ81zCklAkStks1opCUhAApkhoMhlpiksiAQKQUCRK0QzWok0CChyaVA0DQlIQAIS6ImAItcTGfdLQAL1EFDk6qHmOYUkoMgVslmtlAQkIIHMEFDkMtMUFkQChSCgyBWiGa1EGgQUuTQomoYEJCABCfREQJHriYz7JSCBeggocvVQ85xCElDkCtmsVkoCEpBAZggocplpCgsigUIQUOQK0YxWIg0CilwaFE1DAhKQgAR6IqDI9UTG/RKQQD0EFLl6qHlOIQkocoVsVislAQlIIDMEFLnMNIUFkUAhCChyhWhGK5EGAUUuDYqmIQEJSEACPRFQ5Hoi434JSKAeAopcPdQ8p5AEFLlCNquVkoAEJJAZAopcZprCgkigEAQUuUI0o5VIg8AHH38SfjJ4Vviv+6eGd94/mkaSpiEBCUhAAhK4QGDDrg/CV+6cGK4bMT8cP3Xmwn7fSEACEqiHgCJXDzXPKQyBU2c+Cx1r94S2VbvCmAVbw9fumxL++Q9vhJGzNoX2VbvC3HV7w7GT/rItTINbEQlIQAJNJnDo6MkwvXNnaF+9Ozw9Y3348q3jw3cemhFeX7I9/p6Z1rkzLN3yXpNLZXYSkEARCChyRWhF61A3geOf/H/2zsO9quPM//9RNtvXu9lkS3aTzf7SEydOXBInseO4Y1xwxdgYbLopBkwzpvcikAQqIEQVIEAU0QWIIqoxxTTx/p7PK0Z7kVWuzu33fO/zHF3de87MmfOdc+c9n3nfmbllfSfXuGH9l5fn2V8/N9O++dxM++eX5/p3r0xdZxe+/Cpy/kooBaSAFJAC8Vbg0Kkv7DdDSu3br823B/rOtW8+O9P+9vlZ9q1X5rmd4XsATy8pIAWkQG8VEMj1VjEdX1QKtLbetakVe+wbz8zodJtUvts4Ri8pIAWkgBSQAlEUIKqj32frO7Ux2J4HXppre49fiJK10kgBKRBzBQRyMb8BdPlmjScu2t+/OPtrRpbv6g62SCIpIAWkgBSQAikpsHjjIffEddZp+Pr09XZHHYYp6avEUiCuCgjk4lrzuu52Bb64dtOe/qTqayD39CfVxtgGvaSAFJACUkAKpKIAHjcm0uoIct5heOBMKlkrrRSQAjFWQCAX48rXpbcp0Hr3rk900tHATlm9RxJJASkgBaSAFEhZges3b9vbMzZ+DeT+Mq7Krt24nXL+ykAKSIF4KiCQi2e966o7KLC76byPUwgwx4B0zSLWQSR9lAJSQApIgcgKzK89YH/z/Kx2mPurZ2fY6vpjkfNTQikgBaSAQE73gBQws0tXbtgLE9e2G1jW+NFslbo1pIAUkAJSIF0K7Dtx0X42sKTdzjw0pNRYv1QvKSAFpEBUBQRyUZVTuqJS4O5ds1lrGtsN7MSyhqK6Pl2MFJACUkAK5FYB1i198/MN7XYGD51mRc5tnejsUqDQFRDIFXoNqvxpU6D+yFljLTnW9FFYZdpkVUZSQApIASlwT4E5Nft9vdLvvb3YmlouSxcpIAWkQEoKCORSkk+Ji0mBS1dv2BOjK+xPoyuMdX/0kgJSQApIASmQTgX2N1+y77+92EYs2a4lB9IprPKSAjFVQCAX04rXZXeuwPSqfTZm+Y7Od+pbKSAFpIAUkAIpKvDxsh22VWuUpqiikksBKYACArks3gdMc8/i08TFj16+w/rP2mTPjq+2x0aU2yPDyrTlgQY/HLDMe0tVH/lxPz46vNyeGldlfSfX2JBF22z55iPWfP5KFn+1OpUUyLwCF6/csModx21S+W77cMFWe3nKOo8MUDuUH+1QOuuBNg0788tBK2Tz88Dmp7NuQ17UMctK9J2yzoYt3mYldUft5IWrmW9IdIZYKiCQy3C1M4nGsbNfuoEmZO93I8rdSPebVmuvTq31dWU+mLfFBs2v0yYNdA90vAfm1XmHR7/P1lvfyeuM2UQfGrLSZxit3Hncvrqp9Zcy3IQp+wwpwNphaxuajXv79yNX2evT1xueGiZamrmm0R/+KnYc9+npmaJemzTQPZD/9wC/2fLtx2zppsM2vWqvTSjdZe/O2mS/G7HKn/1qdjcbk97oJQXSpYBALl1KdpLPucvXjUWlf/3RSntqbKVDG3HxGOsxJTtt/MpdbrQ/LW9w0ONdmzTQPXD/PcCD7YSyBhu3YqeNWlZvwxdvd4P4qw9XureuZvdJGcZO2h99lZ8K8BC3ef9p6/Npjf15bKXf2wAdoXb1h89aQ9N5j9w4cPKSHTr1hTZpoHugwO6Bg6cuGb9flpvYdfSc1R1s8QnUPi1rsKfGVtlLk2psY+Npu3WnNT8bKZWqoBQQyGWguu603rXqXSc8bIKwyUHz6uyTlbu8ZyY8lNJLA8jxvTZpoHug+3uA3wobQOe/odJd3hlCCNoPByw1vNp0nOglBfJZgVMXr9r7cze7bZi6eo/tOHLO9hy/YEyA0dh80R/89h6/4N/tPnbetEkD3QOFew/w2wbm+G3zG+e3TWcNtuzhoWU+Hp9J1vSSAqkoIJBLRb1O0l796pYxYcaDg1fYG9M3OLzx8Am46WFdGugeSM894FBX2gZ2jEH47dAye3JMhRvKTn6W+koK5FyB3U3nPST4jc/W27ZDLf5wx5hpHu70sF64D+uqO9VdsvcAv3V+80AdkSTPT1xrfSbVaBmKnLfOhV0AgVwa6w+IG7pom/38gxIbOHeLh0vywKmHd2mgeyAz9wC/Lzx0hF0+/UmV/WZIqW05cCaNv2plJQVSV4B1KR8fudqGLdrW1kN/4qK8bvI4CuBjeg/gqSP0krDLwfPr7E9jKhzuUm9plEMcFRDIpanWb95u9QfKnw8s8VmKJq/aLYATxOoeyNI9gNcbqHvx07UeskL4il5SIB8UoPediQ4Y+8rYGXng5MFJ1oOj44r7XiHkkvaAWcyfHFNph09/kQ9NlspQYAoI5NJQYa2td23l1qP2i0ElPuvg5FV79ACfpQd4eboy4+kqRF1DCDMzWzILYFPL5TT8upWFFIiuQMula/b0J9XeuRcmP9DDeXE/nKt+Vb+9uQfC2Fg8c69MqdVY7+jNbWxTCuTSUPUYaEK63pm50eSJE1gUIgQVS5mBOa7ljx9XWN8pNXbhy6/S8AtXFlIgmgI8nL09c6OH0DE2pjcPeDpWQKB7IAb3QNN5D7Nk4qPnJ66xzyr3GhPm6SUFklVAIJesUl0cd/3mbe9t/cOo1b7UQLE8EOs6BKSFeg+wqPLIpduNMOfZa/d38cvV11IgswowVvOPH6+22j0nPaRSD+UxeCiP6Zgv3dsp3ttN5+3Imcse2fXE6Erv8Mls66Tci0kBgVyKtbn90Fn7+aAVNmJJvU+NXqgPvyq3wK2Y7gHCm9/8fIM9Orxc4w5SbOOUvPcKsFZcv2m17h3WzJQpPuQKjuTJjck9wBg5Fg9nvLfWmOt9uxvXFAK5FGr+q5u3ff0qFvtmIHsxPQjrWgR2hXwPhNksHxlWZtMr91rrXYWqpNDUKWkvFWCBb6YWZ4pxJjiRx0Iwp3tA90BP98ChU19YyZYj9pdx1b4IfC+bHR0eUwUEcilUPAPZf/ZB2yyVWidO4FPI4FOMZSfE8u0ZG42w5+PnrqTwS1dSKdA7BYYs2mYjlmz3teI0S6Ue4Ht6gNd+3SPcAyxLwCy3fxlXZZU7j/eu0dHRsVVAIJdC1VfvOmH0+Iepz4vxYVjXJEAt1HsgeOV+8v5yW7fnZAq/dCWVAskrcP7Lr+y1aett3roDPu5FD+l6SNc9oHsg2XuAsXJMkjS+dJexrJVeUqAnBQRyPSnUxX7ilz+cX2d9p6wzvHE8NBbqA6/Krbor1nuAWWSfGF3hC4YzbkkvKZBpBVj8+/XP1lvN7mafjS7ZBzgdp4d93QO6B5gFnU4goknOXLqW6eZK+ReBAgK5iJXI+Lhnxlf7wFSFVQqEihWECv26JpY1uEHsO7nGLl65EfHXrmRSIHkFFm885EvR7Dp6zrTkgB7MBWe6B3pzD9BmEO3F86UWCE++3Y3zkQK5iLV/9cYt++3QMvto4Vb3yBX6A28hln/sip02pmSne1u6Kv+4e8dwbFfH9OZ78uttXiEN7705l45NvYOATpahi7b5Oo8nL1yN+GtXMimQvAJTK/bYoHl1Ptal2MfH7Ttx0WGVh8+OW7FfOw/njGnqSoN8vH7KiseHCXgYi5WPZewN9BTjsdQRS5f8fuQqH2ObfMujI+OqgEAuYs1fuX7L/t+7S+3jZTsEcjkIKyWUlbGJYbbQziApfMcxYaHoVOEIMOhtXmGslsJvUwez3tYf9TV6+Q77yfvL7NjZLyP+2pVMCiSvAJ1Lo5bVW1PLZX/QL8aHzXBNO4+es/rDZ63+yNc3IIHxPu6VbMovr0xjcxvQAGLhWiK9N503FnLuqAHfAUxcPw/mUfIGtMgjStqOaagLvDvU15qGZqvYcdzHDVM2ZkpMWYeYLA/QUddMfKauuH9YOof60UsK9KSAQK4nhbrYD8h9/53FNma5QK63D9epHs+DElPKb95/2nsUMUqE0CV6yoIXbOmmw94Ybmw87WlIG+X85AcUcK66A2ccIAModpcfEDG35oA1NJ23BesP+v3S3fHal17Yc+Av3WXff3uxHW253MWvWV9LgfQpwG+ejY6DTDzo5UueQMbwxdvthYlr7c9jK+3JMfdvL09ZZ8wcy1qrQMnuPIE5Ho7X7z1l5duaHGyiQgwwyGLvg+bX2bPjq++7/qfGVfk6lp9X7bMoIbbAL0tYUEZ0i1pG7hWuFzigLM9NWGM/GrDM28NfDCqxfp+tN2wk+zkuX+6tOJeDuuD3QsQX9a6XFOhJAYFcTwp1sR+Q+x+BXCQoShVWeEhiMPCle2OeGPs0c02je0dD3gAbE13wsMGLY0hD2nBMb96BRDxxNLBfXr9phE8lgmNXeY1cut1KtzZ5GSp3HL+vjF2l0ffpgzlADo/sf7+1yHvHu/g562spkDYF4gByPGDibfrl4BX2jWdmeOjyHz+usMdHrrLHR632sLB/77fA9xFmiicoH0AheDte+HStL9gOZEYtF+GJZdua7HtvLbZ/fnmu/W5E27Xz/uDgFfZA37n218/N9PGSeFg4dzKAAiASWvf0J1UOWmidbNqO+Yd0dHRSxv94faG9yLV/tt7z/4c+c7z8izYccs9pKsDY8dz6HM0LHX5bgBwa6iUFelJAINeTQl3sF8il72G7t+ASQO7c5et2606r3b7TaiV1R++DNEJe59e2wR7HcCyesQByQBj/cxwbntWOHjY+8z37Ry6tdwCkkb3w5Vc2ZfX/gRzHdZUX6VbUHbU7rXdtVf0xgVyWw3AFcl00YPo6YwrQFrAVs0eOdpBQvd8MKbW/fX6Wra4/5p4jwCiEGdIm/3JQG9AwAQzH82BKWjrECOnjOzrbAnAk7gew8EyF40hDWo4FokjLe2Ja0vOZPNnPRrpwDJC07VCLd+w8P3GNl4fvwnn5P5yPvLuDPPaXbz/m3i08ksAXwEr+zFzKNQO2gC4depSF87CRb7iGcB3hXHxmsgs6n4AuPnt4asK1hTLyTpnRJeSd+M4+yvI/7yzxoSB4+NADCCcNXrp/emmO1yORJkGL7jQkf/aTTyizn7Op7bra67PpvOdHnmzhOkNZEzXo7Do4jnThWnuqj8TrLuT/uW60EshlrIkuuowFchGrVCCXe5DDy3bi3BW7fO2mh6/gMQPQHMBKdvoYgEtXb1jz+SsOXwHk8NYBYiy4yYMHBmzZ5sOeLnjZyION77cebLFNjac9NJIwl0SQA/Tw+GDQPa+DLQ5uwCl5CeRyd59QBwK5iA2ckkVWIG4g9/cvzvYQQx8Px0P7iYv+kH/64jWfDAyQmbxqj48Z5OEdCKCTbcDszT6jLN4i2uAAXPw/e+1+z3Pl1qP23py24+bU7HdAYz+da69PX+/ATIg9aXl459yAJCGdTN/+zsyNHq1BeCPH1B1s8WiK77w233794Uo/jrB70lEu4Ivzvfn5Bj8H+0gX4CMREBJBjtBKwuf5jryAGcZIEoXxX28uMtayxIZw/exjXUvsEGV86/MNfh2EUrIPO8K+f+u3wB4aUmozqvf5MAL2AYoMK3h31iYvI+uNAcz3AVXCeDXSMCbur56d4SGwpy5cdTjiWgNcUYbHRpR7uCnXyveMeSSihX39Z23yMnDuoEXN7pOuK3mjTYAurhc45Fo5duH6g14+6vH9uZv9uqg/dEJb7CdaD5y7xW0t5Qob10TYJ+k4BltKSCxpE+uh2P4XyEVuemObUCAXseoFcrl7QOdBiTDJL+4BHD12hFliQNiHcQDUeLCg0ceIA3Q8CGAMGKsGAF67cduYyRBvHbOQ0pMKDGJEGQ8HwPH92S+uGwaQhX7Jh3ceTHiYIKST3rPrN2/bqYtXfbv61S036gDeiCXb5ZHLshcu0cMrkIvYwClZZAXiCHKACe0gD99sPMTzQN5nUo1DBO0kYAMM9JtW65Dys4ElDlPffm2+h2PSsUabTacYoYmEKBK6yXGA1/feXuxghveLcV58JjSQcwBztPWs3cdsf+T5qw9X2s8/KLFvvzrfCKXkGADk6U+qPeTxX1+Z5+fgfNgIxroRevi//Ze4N4T/GUdGREUAmERo4HzBI0eewA8QF47x/5vOO3ASZgmQHT93xebXHvRrAvDwuoQwTMASmGP7w6jV7umk7FxvGJvN/5TroY9KHfLQhXywV+gfzh3eKTceObQi3fSqfW6bgLVQT4AV5wywW7XzhE+04SD5UamX1TWcuNbhi/NMq9hrP+i/xMemU8/ABx5o7CuhpnSAcq2E2wKJ1BcwiWcQyGM/cEuZ0JhP9/oAACAASURBVICJ4/7zjYVue8mL8n+4YGt7fTw8tMz3cy8AdwBqOC5ca7G8C+QiN72xTSiQi1j1Arn8ATkMDyBFr18IhcRY4rGjh5CeUgCMXl4e8jE4rAPI+AYMEgYWiGttves9fkxXTxgk4ZCkBRAxgAxs50W+PhNm6S43ODdvtxplAO4+q9zrx7H4NAaUkBp6TBVamZv7RSAXsYFTssgKxAnkeAj/5nMz3XuzZNNh7yTDC4PXiElQAK0/ja5wiAIAmByF7/CUAV1ABOONAQUm4gAuaJcJK2R8GVENtKPk+d032757aVKNR1MAj4AN5w+hm4wrw0NIZxz78eDg0QEi8GLRnhNeSP5ABiBGlAVl+Mc+czyUkXIBG5yTSZIeHVbun4GfRFjoCeR4ICcNbRDnp+MP6AHSgC/sEXDJ9bGP66CswBf2izIygQzlIa8P5m2xv3thlh/LdaHdrDWNPvYNWGIcHvolljFAFt61b70yz/7l5Xn2wwHLfI0yzomd4xjqxj1xh8+6pg+8NNfLzXkoH17Kv3l+lr9TFuwfenGvh3NgV4FhysiYOzpJAXGunTBW6ggIA6aBVupz1tpGh0MgHu8jYIotpdOVMX1/GVflkEnYKvUB8AGx2GJgLvFai+V/gVzkpje2CQVyEateIJebB3NADOMRPHI0esATXjX+p2cSI47xwZPGPgwNIEev8PLNRwzwwlBzHHnRi8hxLZeuueeNsBx6U6ljDA0whtEjBAhjBchxHowtwIbxDKGYvGM0yQvPHfmXbDkikMuRV04gF7GBU7LICvCbZ6OtKJaHy47XER42gRxCJ3kAx7vCBCc8gANTeMXwvuHtAU7w+OAhw+PFwzztJm0zIPXK1HUOGXR68SCPBwmPHB1srmPTeWMmSLxEeMiYgRZQAPQ4P0BDnpQDgKS8YWwVXkAmYAGMAAbKDsww/gx4YT9QhyeJczsMNZ33MhNWCGARxQG4JeqQDMgBG9gTyjhk0Ta/XuwIoaVown7e6XBEM2CW6+VagJa+k2scsjgudESGEE6+w84xTT1ePWxaokcwlBWN2dCNmUQBKGAaLyF1BSwCdOjFO+UAvCgX1wjkkZ76oI7RCFAHDLGh7ENTys26ukAg0Eb94BUF5Lg+9rNhu7/57EwjLJTPXAfnAP6AVbyPAHqAulAflIX9aEnnK97bcI3F9B5+WxojF7kJjl1CgVzEKhfI5QfIYUQw5jR+wBohlfQWEtaBwWMfhoB9eNaCVw1Dw1pPgCHH8MDvIZhXbjh4kR4jg5cNY8UxHEu4JWPkOB7DyAtooxwYPh4MAgQSYklZBHK5u1cEchEbOCWLrECcQC545GgfGYOMZ+uJ0RUOP8AZ4YY8gNMmBkAD9vCcPTO+2t8JewTw8MDRoQb4AVXMrEibzIM+4944nhA92mDadB7+ae/xANFJB+gAF4THcz5sAg/4hNEHAACgAEcgCVjhGACIz4Ra8h1lYwOqACTAgbafNp4tQEMyIIc9QBvyIMye8FLsErBCORknSGgoXiaABy2AVLQCeB027wEvZQXcgChmAkVf4ArwemRYmXv3ugI5NMQ+oSfjBLFddFBSf+jHpDR43wAkAI8yc3zQEFuIV45z0RmKLU0W5ABHNA73AR2nwF4YlhD05FyUH3gHtPEeMvaQsFXqA0BHJ7TkN0Z+oXwhj2J455q4twVykZvg2CUUyEWscoFc7h7OacSDRw7DiheMKf4JlyT2HmPNEgEYHAxwIshhCHnRw9oR5BhkzsQp9EoyJo7GFO8aIMc5gAJCYQLIcc67d82PxYBghMLGZwwmaQRyubtXBHIRGzgli6xAnECOWSt5uA9j5AAGHsSBEzxZhArS/vI97SqAhmcMKAOUeFBnA2CYvISwSrw3HAPk0I4CFIAcD/TdgRydbjz8A4OcMzzk0ylHyB8AgN3oCHLYBMqFt4lyhzJRRj7jxaLjj7KEPPm/J5BzqEoYIwe44PUi/J9zMSaMMV9hzTlm/+wU5O4tXk7Zf/zeMvdKAp6EUwK7jDXjoZ/wQz9nwmQnlJNQUkIVsUfBPvEewPSN6RvcQwaEe5jra/MdkDkmXC8Aypg1wimxsQw1SBbkCE9F4wBe1AXQTJn4jjKyUWd8pq65PryvgHXH+qBO8N4l1nHIoxjeBXKRm97YJhTIRax6gVzuHs4TQY7GnId1wlcALD4zdgAvGT2e7OO74JGjp7P17l3vkSRcEtAD1DgWI0KIJj27hG2QB4aN4+ihBOYYhxBADkDjRU/msMXb/BiOo3z0bJIPsEjvp8bI5eZ+EchFbOCULLICcQQ5xnGFB3U6wPCqARiE8OFBwssUgInJSHjg5njaZiCPNpuOMcIcwxi5rkAOICFdR48c7TEgR3gf8BdAheOARICTcXx4pQAFvF0cAwDxmTFawXPF95SPclEe4DRATYAF9ofJToC+EPIIAHF+4IdZHfFIoQXXxvkJOQXCAFvOg61hBkfKB7gkeuQYDwj8kZbxZqQFCPnMddH5iFcOz6HPvpkwjo+8KSszQpI3towyBYhDQyAX7xoeMuwgnaDUGR5MysU1s+GRI8wT7x31hH0DxkJHKXlRbrx2HUMrCZOl7tEWzYhSYbwdnaTkC1hTJqJlaK8ZRwew4qUl31CX6EDdE34b7oFQF8X0LpCL3PTGNqFALmLVC+Ry82CO4egIcoxX4zsac8IZGRuHgeM79mEkADnGUWAEqTuMDoYEAGOjx5WxcxgbQk4w7kx+grElJIYJUDB4zI7pY+TKGvwz/zPNNr3AIS96K4FADC0QqMlOcnevCOQiNnBKFlmBOIIc4EbbGR6oaftoL1mjDMjgQR6IYCwa3+FRASKIfABKACFgB/Ah7LA7j1x4iOccIbQSsACkgAbyYYwZIZUsPQOI4RUC1IiowOPD7ImMwwqggmcLgGHyK+CC8V0ABOGLgBjwknh9XGciyDEpB+UCSsif89Duc114Aocs3OozGgMxIcwSG0EZyYdJYAitBC6xTXglKSPeKACGzkK8eMzeCNygG9eGlw54JTQS7ShzqAOuDduHbQPAmIETLRKBk3wZI8d+QBi7x3l+OrBtuQTKRz0BrNQJk5RwbQAp3jmWTqAeKA+aO2y+Ov++MXIB5CgbxzIpGfcAnkjKx3UAjQAnY+cATibDCfCJHtQHOgDkeOo4P3mFay2md4Fc5KY3tgkFchGrXiCXu4dzHpToOWSmSowg3jTCVQj54EW4I6GTfMc+DABLDWD0gDQMEZCGIeABhIcMgIxwTIwexwB8LCcAGGLc6HHGwOPN4zjCeCgHC+ECgMGQcRzp+A5jDATyEMCLz8ELCJBqy7wGAjm/9fQniwrEBeR4+MZrApiwgHUi6PCAzsM1gMT+16bVOjQBC0xbT1gh47zwAvFAzzGsWcaYMh708fbwmTwAAOCI2S+BCbxkwAztdwAjHv6BDtp8IIFJNmjH6VwD7JgVkzbdH/6bzjuocBzlIkqDSVDwAnFePIFEXwBVjNtjfBaQRtkSgQHbE7yHpAOIOJYxgoQ6MpEI6VkDjbGCnBtbwDUAaZSP8qMRHkGOxVOHrgAWUES+wCR2hrwBHSCH60W/cB5mwUS3xDqgrOgEuOFhA9bQAa8fAMa1ow3eMcoIUHONXDteNaANe4WGjFkDoOgM5RyMeSMtsMWEMHR0cv1oyiQl2F9sIpriRcTGUo+UB49oGG8HANNGkwd6AfpoxfVzb1GOAbM3ua2kPigrabDJHesjsW4K+X+BXBYb6yI5lUAuYkUK5DL/EN4V6GD86e3F8ABiYaZKjCINOIYifMc7xxASSYgPhp5Zw+i9pCeQmSXZME5AHHknev0wPOEYQlUwSHj7OFc4ljEI9BoSlsmxAB+9yhhEDCHQidGhF5rzd3Vd+j7995RALmIDp2SRFYgDyNHO0mYCCHiNOob14ZkCXOi8YpIKYASPDe0kD/lACXAAwAAseKyAJTrdaK+BDGCF8wCFtN+AD3AH1NEWc37C8Bg7x3hozkd7TdvMbJpMFkL+ACBh7qRhoy0mGgNowltIecgLrxPXEsqFBwto8tkgO0Ccl6v5ol8TyxoAIMweGTbCRwlFpMOPsnMNPKBTPmwX52Z8HGMM8QxSHuAGoCFvyklajgOG2qbtb3YtKR+QxT7sC20c48Yof6JHjnzYOCf1gd3jXGgCSDMukHJyv4YyhnJiN8mfY4OGTGbj+t0bX4c9A94AU8pE3VAWxtwBntQ11wSoOgjfKwdlxIYy5g5PIvkDhcxwCsBRP2xEwwBvXD/54yUEQDmG+grXV2zvArnITW9sEwrkIla9QC79D929AZnwgI5xCukAJzxwbPwfvuczxp00fMc4NsauEZaDlw4jj+EKk5+EdMFIsp8tfN/xnBxH/gzeZsMok1coQygr5wjfhbz0ntn7KGjPwwY93XpJgUwrEBeQ44ET7wkP5YBCZw/UPPjjEQKGgAXSAGt8R2cXXqTwYB68eORFnnTUJebJuYC4cC7yotOO8Wu8cyznA+jCmDvghvPyHceH/IAJ4JNJWjgX+/CwsR/4ZFwz4AkwdAZHIR+ugzIxkyblCBt5kh9tjoPUPajiPOSJRwnvHOXjOikfeZGez1wHG7oBtpwD3dgH4FA+8gCWyB9QCvqGsiW+cwznID3XhyeRfCg33ydqHzRkXziOvDm/a9jUNukL18d1ckxY1oF8uAauhWM71pmXiTFx9yZwoe65Fjy64btQbnSiLHhMuU+Idmk/pov7LaQt5Hd0o040a2WmW+riyV8gF7EuBXKZfQBPBnAAMrbEY5P9jjR41MJDV8d8Qp58n3gMINbZsYl5BU9dyIM0fCeIy/49I5CL2MApWWQFQnvhEzl0mEGwkB8wOys7gNAOAV1cazjGISDBS8SDOjAAKCXu43/y5CE+8Zzkw5b4XTg2MT37eeAnb7bOyufpmv9vIo2QJ/l3Va5wTOI7+YTr4zyJW8cyJaYL5eNc4Zp4D/9zbChjABoAlv3t13XPS+jHJcwwmXiejv+TPlxfV9qENFxL+7k66N7xmFDGjmXpeE0hHe8cS91zjpA+cT//cw+E8nJsx3ui4/HF8BldBHKRm99YJhTIRax2gVz2H8oDGOld2id7DwjkIjZwShZZgTiBXDE8OOsaOvemSpfc6CKQi9z0xjahQC5i1QvkBBPJwoSOy929IpCL2MApWWQFBHK5eQAWeEj3YrgHBHKRm97YJhTIRax6gVzuHs4FRtI+2XtAIBexgVOyyAoI5AQUxQAUuobc3McCuchNb2wTCuQiVr1ATjCRLEzouNzdKwK5iA2ckkVWQCCXmwdggYd0L4Z7QCAXuemNbUKBXMSqF8jl7uFcYCTtk70HBHIRGzgli6yAQE5AUQxAoWvIzX0skIvc9MY2oUAuYtUL5AQTycKEjsvdvSKQi9jAKVlkBQRyuXkAFnhI92K4BwRykZve2CYUyEWseoFc7h7OBUbSPtl7QCAXsYFTssgKCOQEFMUAFLqG3NzHArnITW9sEwrkIla9QE4wkSxM6Ljc3SsCuYgNnJJFVkAgl5sHYIGHdC+Ge0AgF7npjW1CgVzEqhfI5e7hXGAk7ZO9BwRyERs4JYusgEBOQFEMQKFryM19LJCL3PTGNqFALmLVC+QEE8nChI7L3b0ikIvYwClZZAUEcrl5ABZ4SPdiuAcEcpGb3tgmFMhFrHqBXO4ezgVG0j7Ze0AgF7GBU7LICgjkBBTFABS6htzcxwK5yE1vbBMK5CJWvUBOMJEsTOi43N0rArmIDZySRVZAIJebB2CBh3QvhntAIBe56Y1tQoFcxKoXyOXu4VxgJO2TvQcEchEbOCWLrIBATkBRDECha8jNfSyQi9z0xjahQC5i1QvkBBPJwoSOy929IpCL2MApWWQFBHK5eQAWeEj3YrgHBHKRm97YJhTIRax6gVzuHs4FRtI+2XtAIBexgVOyyAoI5AQUxQAUuobc3McCuchNb2wTCuQiVr1ATjCRLEzouNzdKwK5iA2ckkVWQCCXmwdggYd0L4Z7QCAXuemNbUKBXMSqF8jl7uFcYCTtk70HBHIRGzgli6yAQE5AUQxAoWvIzX0skIvc9MY2oUAuYtUL5AQTycKEjsvdvSKQi9jAKVlkBQRyuXkAFnhI92K4BwRykZve2CYUyEWseoFc7h7OBUbSPtl7QCAXsYFTssgKCOQEFMUAFLqG3NzHArnITW9sEwrkIla9QE4wkSxM6Ljc3SsCuYgNnJJFVkAgl5sHYIGHdC+Ge0AgF7npjW1CgVzEqhfI5e7hXGAk7ZO9BwRyERs4JYusgEBOQFEMQKFryM19LJCL3PTGNqFALmLVC+QEE8nChI7L3b0ikIvYwClZZAUEcrl5ABZ4SPdiuAcEcpGb3tgmFMhFrHqBXO4ezgVG0j7Ze0AgF7GBU7LICgjkBBTFABS6htzcxwK5yE1vbBMK5CJWvUBOMJEsTOi43N0rArmIDZySRVZAIJebB2CBh3QvhntAIBe56Y1tQoFcxKoXyOXu4VxgJO2TvQcEchEbOCWLrIBATkBRDECha8jNfSyQi9z0xjahQC5i1QvkBBPJwoSOy929IpCL2MApWWQFBHK5eQAWeEj3YrgHBHKRm97YJhTIRax6gVzuHs4FRtI+2XtAIBexgVOyyAoI5AQUxQAUuobc3McCuchNb2wTCuQiVr1ATjCRLEzouNzdKwK5iA2ckkVWQCCXmwdggYd0L4Z7QCAXuemNbUKBXMSqF8jl7uFcYCTtk70HBHIRGzgli6yAQE5AUQxAoWvIzX0skIvc9MY2oUAuYtUL5AQTycKEjsvdvSKQi9jAKVlkBQRyuXkAFnhI92K4BwRykZve2CYUyEWseoHc1x/OeWieWNZgk1fttimr99jUCm3SIHP3wORVe+zT8gabUPr1ezHAs0AuYgOnZJEVEMgJKKICRWPzRTt8+gtrarlsx85+acfPXdFWZBpQr0dbLtuBk5cMaOt4rwjkIje9sU0okItY9QK5+x+eATgeqAfM3mRPf1JlDw8ts18OWmE/eX+5/XSgNmmQvnuAe+qXg1fY46NW22vTau3jZTtsUvluA9oCwIV3gVzEBk7JIisgkBPIdXw47+nzvhMX/cG+etcJt6PvztpkL3y61p4dX62tyDR4aVKNfTBviy3bfNjrfG8HmBPIRW56Y5tQIBex6gVybQ/NwQsHwPFw/eSYShs0r85GLt1uY5bvsLErdtqYEm3SIH33gN9Ty3e4MXx5yjp7cPAKe37iGhu3YufXYE4gF7GBU7LICgjkBHI9gVvifiCuoem8cd/8aXRFu/0cvni7jVxa77YUe6qtGDSot6GLttkrU9fZE6MrbMiibe6VS4Q5gVzkpje2CQVyEateILfLH5onlDXYG9M3uOdt2OJttm7PSTty5rKd/eK6Xbp6w9Dpy+s3tUmDtN0D3FPcW4So1B85azPXNNofRq22R4eXe8dBomdOIBexgVOyyAoI5ARyiaDW3f/hAf69OZs9kmXB+oPWeOKinbl0zb64dlP2s8jsJrbr4pUbdvDUJSupO2pPjauytz7f4OGV4V4QyEVuemObUCAXseoFcrs8BGTIwq32g/5LPKTt1IWrduHLr+z0xWt28sJVaz5/RZs0yMg9wP116uJVO3f5ut9zG/ad8hAkPMKE+AaYE8hFbOCULLICAjmBXHfwFvbxwM7D+5ya/fbrD1fa2oZmf8gH4rClsp/F+fyA7Wq5dM0uXblh6/eesj+PrbSPFm61/c1tY+YEcpGb3tgmFMhFrHqB3C7DG0coyIufrvUeJrxwMj7FaXzyuV556MEoVu08YY+NKLf+szb5pDuMkxPIRWzglCyyAgI5gVyAte7e3QPTdN4YM8U9Q8cUWz63tSpb+ux76Pgu3dpkfxlXZSu3Hm2HOSa8+e3QMvfURW6IlDA2CgjkIlZ13EGOB2QmOPl/7y61z6v2eSiIehHT18jLYPZOS7zAJ85d8YlPGHvA5CcCuYiNm5KlpIBATiDXHcCFfYDcrqPn7OcflNiq+mNuQxXJ0rt2v9DtJN5XhgiMWlZvI5Zs9xlL5ZFLqfmNZWKBXMRqF8i1gdx/v7XIKncc9/C2Qm9UVf7CNaI8ABHW+1nlXh+vydIEArmIjZuSpaSAQE4gF2Ctu3dAbufRc/ajAcus7sAZH1cuG1S4NihK3QW7Rac4E3ax7IRALqXmN5aJBXIRq10glwByOwVyURpxpUmv0WZygBnV+3zMJusYCuQiNm5KlpICAjmBXHcAF/YFkPvxewK5ONvCy9du+nqoDFPBOyeQS6n5jWVigVzEahfIJYCcPHIa15AHk7oEkPvf/kt8QXqBXMTGTclSUkAgJ5ALsNbdu0AuvR15hQqDAeQYEiCQS6npjW1igVzEqhfICeQK1XAUa7kFchEbMyVLqwICOYFcdwAX9gnkBHLYYoFcWpvfWGYmkItY7QI5gVyxAlGhXpdALmJjpmRpVUAgJ5ALsNbde76DXJgmn9moO25Mn59PM2xSVpaiYY023plEhDLyfb7bM4FcWpvfWGYmkItY7QK5+IIcRgJj0dXGDIr5bjyKsXwCuYiNmZKlVQGBnECuO4AL+/IZ5ACgoy2XbduhFtu8/7RtOXCmfeNz/ZGzHgbIBFO9na06QBdwyEzDqdoizg9U1u45aYs3HrKa3c1evvrDZ33yEM7H/vMRyppq2ZJJL5BLa/Mby8wEchGrXSAXP5DDIBw/d8XqDrbYss2HbfnmI/dtfFe+rcn2nbhYML2ByRiaQjlGIBexMVOytCogkBPIBVjr7j2fQY5Oyk2Np32x6p8OXG6MO2apITb+5zsm55hascdBLFmYw4YyDmx1/TFfcgGvWSr2hfNik6dV7LUfDlhmf/fCLC/XOzM3+tps2GquBZvMwuuNzRfzypPItQvk0tr8xjIzgVzEahfIxQ/k6NVjemAe1P7zjYX2ndfm27demWf/em/j/3/vt8Ae+qjU5tce8LCOZA1cKsZMadt6dQVyERszJUurAgI5gVx3ABf25TPIEaJYtfOE/e3zs+xnA0uMdWNZ54xt5NJ6e3vGRrd///zyXF9HligUIC3YIveC4Qm7cPW+74GqDftO+dp55HPp6g1Pw/Fh65iGPLvKDxDc33zJvvf2Yt9Y05YOVsrZd8o6wyvHOfhNAnp4EilDKGc+vAvk0tr8xjIzgVzEahfIxQ/kMFaAXP9Zm7znb/D8OltRd9SWbDpsS+9tGIwH+s411tcjBCXRwGGg+MwGFGKcOhoSN1gXuz4u7A/v7fndyyuZc3Q8Z7F8FshFbMyULK0KCOQEcgHWunvPZ5AjZHJNQ7PbOaDtxq07942Tw87gVXvgpbnecYkNCQAW7Bufgz3C3nEMgEi6v39xtsMVbXZIyzGJG99j57rLj/BMpuv/p5fmOFxev3nbLl25YYdOfeHeN7x1XEu/abXeycq6fQK5tDZ3yiwPFBDIRawEgVx8QW7A7E327dfm28qtRy0YDnr92Ogh/HjZDjdU41bsdEMWjBPjAQ6f/sI3xh+4obtn4NqN2YU2r184jjAUT38P1DBM/t29EBWOO3LmshtDxu4lniMcR95x2ARyERszJUurAgI5gVx3ABf2FQLIAVyAHHYudBryDpBha37y/nLvtDxw8pLvx/7V7D5pA2ZvtsdHrbanP6n2NdIOnrrkALX90Fl7YeJaB0QiVyaV73aP2rx1B2x65V4Pf3xqXJW99fkG23HknNtTgJIy/MHzq7LJq9rScK7Kncd9H57DBwevsKGLtlnljuPeuTqhrMFtLdExhIQCe69PX+/j6Cg79jcf7KI8cmltfmOZmUAuYrUL5GIOcq/Ody8cBi0YOAwLvYEz1zS60RiycKtDGL2GeOf6fbbeDcr/vLPEfjl4hRsxICz0OAJes9Y02iPDyoxj2J4dX21rG5q9N5TjGMyNoZtfe9D3eUjJW4tt+OLt1tB03kNKCCH57puL/DjGOeSLwcq00RTIRWzMlCytCgjkBHIB1rp7LxSQe/PzDfbl9ZsObgBQaMcBJkAPe4WNwfOFfcL2AE54wbBf/9Zvgb3w6VqHKsIqAa5vPjfTAZDoFkIjX56yzv7j9YX+HZ2kPxqwzHYdPWcL1x90Txo27dWptT7+jXDOpz+pMrQljPLxkavsm8/O9PM+N2GNp+HcIZSS9UT/5eV5HiZKWT8tb/BryRe7KJBLa/Mby8wEchGrXSAXb5BjXBy9iMEDRigHvY5bD7bYo8PL7R/6zLGSuqNu3IApBodj4AbNq/MB4hg4egjfm7PZB2sDaWNKdto/9pnjxoqeSuAMg0iYZsWO4z7r1vSqfd6b+f23F1vfyTWG14/zEc754/eWedqRS7d7zyNlwODh/SP/YICL9V0gF7ExU7K0KiCQE8h1B3BhXyGAHOO+AS9gqG183HYbu2KnvTtrk9sz4AvYogOT8Wgcy1Z34Ix74IClzyr3+ljyMct3+HdEsgBjeM+INiGSBQD7xjMzjOEK6MLkJOSBzaTTk1kziUbB3mIn/+b5WV4ePmNzATWgkGOwxYAjNhJwJJTytWm1Dop8zjf7J5BLa/Mby8wEchGrXSAXX5AbOHeLG5LfDi1zg/H8xDUeLoKnDJiiB5LwS4wMMf6D5tc52M1eu9/BDqji+5cm1fj36/acdG8ak6c8NqLcQyU5BgPEeAKMJeEohFGSB72gGD48eMALg9I5J9BHXngJMaCEonz71fk+VoCwy3wzYOkuj0AuYmOmZGlVQCAnkAuw1t17IYActocORyI/6FBkMi+Ai9kh6Yws29bktoa2d9GGQ+0wRqQJESKMX2MJA9L/6sOVbtNYHgDwAuzw9LFhz/DSAVp8xvYRnYKtI5TSbdrFqx6Zgt0jLJOwTrx5dKACnHSSApTsf/HTtT67JvldvXHLwy//681FXiaWIUi37UklP4FcWpvfWGYmkItYRBf79AAAIABJREFU7QK5+ILcB/PaQI7wD0I1fjOk1I0cBg5jxTIE9DRiMAgPYdYvjsPAAFRAHIaqZMsRB7BRy+rdaGHc8MSxDxBjw4Bh5Ag3YSrluTUHfJZMplsmL8JZ+J6yAHv0SBLKyb43pm/wYxtPXPTPqRibQkgrkIvYmClZWhUQyAnkugO4sK8QQI4IEYCN2R7X7z3ly+sw7g3Am1C6yyM9gh0iZBEbSPTJHz+usN+PXOVhj4Q+YtuAOYYfVO864Z8ZSw54ATLPjK82QIsxdNg0OkEZmgA4AoukCzYIDx6ghlePcgFzgBwdrNhOJiRLBDnAkDF3ePc4HvsY8sqHd4FcWpvfWGYmkItY7QK5+IJcmOyE0El6+zAeeMKAOJYlYJwAxiJAFl4xQhy5Z4LhwOO2sfG0GzfCPoYt3ubGkZh/DGM4DjghZIRQEgaRE86J545zAIucm7ATvHEM5MbgkTf7WEsHABTINTho00uslxTItAICOYFcgLXu3gsB5MJkJ1/dm+wEewM40THJuDTGg/Mdto4wf0COjkfsGZEobIRLAm2sOcexTFAC2CWCHHBINAsTnNABSockIAcwdgQ5bGIiyDHRSrGBHLaKiB/uH72kQE8KCOR6UqiL/QK5mIPcq20whWHCw0bPIj2NGB5grnbPyfZxA4SkPDmm0r1rAdCALUJM2AcYMgaB8MgF6w/e1/tIbyKAxng3wkTwyHEcyx6E8MsAckymAgQGkGOmL4Fc2336vbcX+VjBLn7O+loKpE0BgZxArjuAC/sKBeSY7CR0QmLr6CxkohNgDPvFWDZmtaSTEZBjTFxr6123d9hFwKt0a5MPEwDSGO/NmO7E0EpAjqgSQA6bSkdkGA/ObJZ4rfDSYd8ow8NDyzy0kgW+6ajsCeS4Bsq6u+m8g2Kww/nw3plHjnF+gByhqXpJgZ4UEMj1pFAX+2nYftB/qa+FQogBD+Jx2lggdGJZm6eDRp0euXxoFDNZBgCJsA33yCWAHOfEuGCkmPIYY/bE6Ar/jgYZiAuzcIVYfxpvwijp8Zy1ttENI/8T54/hC5BGOOajw8q9t5I1cBgjB8jhDQzHCOS6XxCcB4Yfv7/MQ1u7+DnraymQNgUAObwN/HbDQ7veBXcd74FCBDlsHSH/ABWTamHr8I4BX0w6QmQIY9eYpZlnJOwck6HQEclMkthIlhPgMx2NABuhkoRWBpAjmoX8AERCK3/94UrD9l27cdvhELtJhAq2EhsI7PQEcgwz4Bg6WwHCTD4n9DbvjiDHfcH4QiYxY9IXvaRATwoI5HpSqIv9hNQxOxMzLwnk4gVyzNjFrJWEN2JwQsONUQL0gDgM3ORVexxwCT9hIDeTm2CQeMBbVX/MftB/iW802swsScNNviwtQD70NjIej7wYR0f+n1ft89DKTkFuWu3XPXJMdhLjMXKA9UcLt9ojw8r9AaSLn7O+lgJpU4AOLu45JmHgIbPjA7w+C+q4B/IZ5OhwZBItbM8rU9fZ1a/+b1gA9g6QI6SRSUc4ZsrqPR6BQkQJNux/+y/xMdp9JtW4546ZJxljR75MfgK04ZXDJmL/ADk8ZmEMG7BI5+iM6n0+YRdhl8AYYZuM22PcHceSH+PQWUeOIQjYY2xnGMfHOQEl7MBfPTvDIRMABeY4R7DduXzvCHLYayJ66ACmDdFLCvSkgECuJ4W62E8owZ/HVvrClwK5eIEcA6fxnmG0EkEOY0BvIuu+MRCbsXGMgwvx/vQIsrYNYSGMc2MSFCY8oVcRw0jjzdgDDBwTqPxiUIn3IhIyybgEejOBQ2YRY0KV4JFjeQMGivedsu4+kCMdPZ/06pF/Lo1VNs6NJxPDz0MEDxZ4yDHggDcTwaCfXlIg0woQYtZ/5iZ/QOW3J3ATuHV2D+QzyBE+Safjhwu2+myUtJ2JbTiQRccito4IFcIpsUd8X76tycdn/27EKl8OZ8iibW4HyZM02EPsHuvCAWcAGZ2XjLELC4sDWuQHbHEsNpfJU4AbPN7AHzaNY4AdOtQZX85n8p9Ts9+XKUB3bDJas2wBIEg0UV6DXPNFHxfY59Mah9JMt1fKv/AVEMhFrMObt1u9sWKiCkCOxkGhlfkVspBoeNLxP0YKA0AoI8YK49CxVy8YOHozMSzBkGBcyrcfcyP0/tzNbviYbTIYK9JhmDCewAhhI/Qc4nnDW4cR5Bh6Hzk3vXZ+rgtXfVkCxh0AdHwXNsJbOBYPIN+lQ4N8zqMzkGMmNQCXGc0I9dFLCmRaASZzYEwOnTh0wHT2EK/vBHf5DHK089g6bAfvnbX72BRsFsdgo3gH1IA+0nCPE1WCjaPDk+P5nmOwZyynw9ADbCPf8554nnAs+bEP7zb5hdDLxGM7lpPjE/OjnNhqoI+yJqbN9f8dPXLALGPhgVy00ksK9KSAQK4nhbrYf/eu2eINh3ytLnr9BXL399jlunHM5PkxJAzixkBhbDqeC4PFmEGOoSHmGI7lu5AGwxaMW0hPuvA935GWNBihcAz/E05CPnznxu7e+UgbjuOdz5SBfBO/L9b/OwM51iAi/Ic1jlr50eolBTKsAA+Vr06r9dBrHlYFbYK2zu6BfAc57AY2qGNnZaL94BhsEcclfs9nYM29cJ3YH9Jhy0jr57l3rsQ8Ev8P+QUgS9zH/x3LSZn5jrzDsXzn6TuUNezP1XtHkGPGSjpyJ5Q22K07rRlurZR9MSggkEuhFjHYP35veSwnPInjZCfpaOg7MzAd83XD1oMB7ZhGn6/4JDGJoZV4yhlbyLpGPEjpJQWyoQD9Be/N2eyde4CcxskJ5AoR5GRTvt5JmwlNEkEOLyJe/L+Mq/JZrbPRXukcha+AQC6FOmTCk76T11nfyTVGCJdCK7PT8GWiMVWehV93HT1yzG5GWCXhzxofl0JDp6S9VmDJpsP26tR1Hoat8EqBnECu8O1Lpp4REkEOj+HKrUd9LJ8mOul1sxvbBAK5FKt+df0x+/nA5TZ2xc5YzV4pj5wMU6YMW9R8E0FuWsVe/00yYQxr7uklBbKpAB0HzMTHjLU8kMkrJ5jrCHMhtJIJsBgvTch+1LZP6QrTHhN9w/AJnh+fHV/twyEGzN7s4+Nv3LqTzSZL5ypgBQRyKVYea6DQ48+seMwoGBevXAA5ZkuMyzpyMpb5bSwBOR6cWcto1ppGn9qaqbN5QNJLCmRbAWaWZZY8HtKZwKDjg7w+xxvuAsj9/IMSY8ZixpPJxuS3jUl3/TCOjyE6LDNEODbLJfxpdIXP5Jnt9krnK1wFBHJpqDtmB2QRTKbAZXIFptEtdqALIPf9txf7Ipv0KqW7kVN+8TJqqdQ3Yw8BNiYeYgFZFgH/1eAVvvhsGn7iykIK9FoBZjZmsWQWBwfkeHAXvMUb3hLrn/uBafRZS431QX38dMLkHKm0h0pbGLaTCcmYqZqlGHAEMLsyyytokpNeN7exTiCQS0P1X7tx2+GNMC6MdlzGy/HQzIyArAFDbHfiDFEyJIVhSIqlnsJ01oSlPDqs3B4bscoNIus96iUFcqUAy4U8NqJcIZbHBHCJEMf/hNuyTa/a52vSEoIrr1x87GYIq2TdSbxwPDs+80m1L8mQq/ZK5y1MBQRyaao3poR/c/oGe3R4uc9WFgeYA+T6TKqxP35c4T3NHae/LxZI0HXkt3ENBpG1+3714Ur70YBlHu6skMo0NW7KJiUFWOPxN0NKfRIDzWIpoEsEOhaM33qwxRe6/mjhVo9qwY7inZPdyW+7k0r9EFLJM+OGfafs6U+q/TmKd9ae1EsK9FYBgVxvFevmeH6cDHAH5uhdYda8Yg6xJLxy5NJ6e3DwCl8cnYeUsFYaD9fapEGm7wHWIWKtPMJT/jy20h54aa73ajLuQC8pkC8KMHbzkWHlRu+7YE4wF2AOj1zjiYtWvq3JfjdilfWbVusP97RrX16/6UuqMPa3mDdmbWQr5mtMvDbqFVBnbVPgje3xkats6abD+dJcqRwFpoBALs0VxgLNr09fbw8OXmlD7o2ZA3iKFejwynGdwBzhAXNq9nvcP6GW9DgBdtqS00B6JacT9xNaMTPg7qbzNr1yrz0+arX900tz7M3PN9jRlstp/lUrOymQmgIsRs+D2u9HrvKIjUOnvrDG5ouazVIhl34PMIaybFuTvTxlnUe48GD/5JhKe2J0RdFvgAzrpsXhWqlTNsbEAe38T10v33zEbmvx79Qa2RinFshloPKZyRJ4+/F7y3zWsjElO21iWYMvT8D3xQZ2XNuQhVvdI0LDRM/ib4eW+VglxitpS04DdJNWPWg1vNw93ow74qEYDzj32j/0mWPjVu5y71wGftLKUgqkRQEmxnpqbJVPglK+/ZgvTYBHhhA7Jr/QMgXx9NZR78DctkMtNr/2gI+zn1C6y58Zivmd8YEsv0BHHB1yRXmtZQ3+/MdwG7Ypq/f4cgNPjavyzu81Dc1paVuUSXwVEMhlqO5ZA4Rpp1+dVmu/HLzC+kxaa6OW1btnDpDzBgu4K5KN2TpppIYv3m79Z23yMUosy6CtZw3w4D79SZX93Quz2nvqpNvXdaMXk+UE2Fju4xeDVth3XlvgvdibGk+b1t3JUGOmbNOqACH4PMz9YdRq9yCvqj/mnmVADqAD7HxrvuheOzx32opcA+q8+aJPdEFY+PFzV4zonmLfCKkMM7sSflhs10s9Up9NLZd923HknE2v2mtPjK704TeEWeslBVJVQCCXqoI9pCceunrXCXtlaq0vUfCnjyscbt6dtcm9WMBdsWyMC2Ta9zgsv5DOUFk8moPm1dl/vrHQtSs2j22qWnE/MRYTjQidBHp/NXilQ2/lzuM+vqKHn6F2S4G8UqC19a6PlePefmz4Kg+nG7F0u81a22h46pj0gEkwtEmDYr4HgFfGNjPtPp0XxXStdQfO2NqGZh8LN2X1bu9wJHqk/8yNfp2aUTmvmuSCLoxALkvVxxIFTPzAIrHvzd5sz4xfY78ZUuYz7P1wwFLTFm8Nvvf2Yvv7F2brPujkt8AslPxWCKOkA4SxRswYdvXGrSz9enUaKZAZBRgXgyeCkLqxK3Z6Jx8Ptg9+uNJ+NrBEmzQo6nuAxdD/5eW59h+vLzT+L6Z7/ueDSnyYCdEjg+fXeQcNMykL4DLTlsY5V4FcDmqf3lgMOAvGEg6mTRrQG8nU+boXOr8X+K3wm7nTejcHv1idUgpkXgEmROH+vnVHdkHtYOftYDHqwqQfLIZdjNcmu5X5dlNnMBPI6S6QAnmgAHH0Dw0pzYOSqAhSQApIASkgBbKjwFufb7AZ1fuyczKdRQoUoQICuSKsVF1S4SnAoOeHPiq1u3I4FV7lqcRSQApIASkQSYE3pm/wGSsjJVYiKSAF5JHTPSAF8kEBgVw+1ILKIAWkgBSQAtlUQCCXTbV1rmJUQB65YqxVXVPBKSCQK7gqU4GlgBSQAlIgRQUEcikKqOSxV0AgF/tbQALkgwICuXyoBZVBCkgBKSAFsqmAQC6bautcxaiAQK4Ya1XXVHAKCOQKrspUYCkgBaSAFEhRAYFcigIqeewVEMjF/haQAPmggEAuH2pBZZACUkAKSIFsKiCQy6baOlcxKiCQK8Za1TUVnAICuYKrMhVYCkgBKSAFUlRAIJeigEoeewUEcrG/BSRAPiggkMuHWlAZpIAUkAJSIJsKCOSyqbbOVYwKCOSKsVZ1TQWngECu4KpMBZYCUkAKSIEUFRDIpSigksdeAYFc7G8BCZAPCgjk8qEWVAYpIAWkgBTIpgICuWyqrXMVowICuWKsVV1TwSkgkCu4KlOBpYAUkAJSIEUFBHIpCqjksVdAIBf7W0AC5IMCArl8qAWVQQpIASkgBbKpgEAum2rrXMWogECuGGtV11RwCgjkCq7KVGApIAWkgBRIUQGBXIoCKnnsFRDIxf4WkAD5oIBALh9qQWWQAlJACkiBbCogkMum2jpXMSogkCvGWtU1FZwCArmCqzIVWApIASkgBVJUQCCXooBKHnsFBHKxvwUkQD4oIJDLh1pQGaSAFJACUiCbCgjksqm2zlWMCgjkirFWdU0Fp4BAruCqTAWWAlJACkiBFBUQyKUooJLHXgGBXOxvAQmQDwoI5PKhFlQGKSAFpIAUyKYCArlsqq1zFaMCArlirFVdU8EpIJAruCpTgaWAFJACUiBFBQRyKQqo5LFXQCAX+1tAAuSDAgK5fKgFlUEKSAEpIAWyqYBALptq61zFqIBArhhrVddUcAoI5AquylRgKSAFpIAUSFEBgVyKAip57BUQyMX+FpAA+aCAQC4fakFlkAJSQApIgWwqIJDLpto6VzEqIJArxlrVNRWcAgK5gqsyFVgKSAEpIAVSVEAgl6KASh57BQRysb8FJEA+KCCQy4daUBmkgBSQAlIgmwoI5LKpts5VjAoI5IqxVnVNBaeAQK7gqkwFlgJSQApIgRQVEMilKKCSx14BgVzsbwEJkA8KCOTyoRZUBikgBaSAFMimAgK5bKqtcxWjAgK5YqxVXVPBKSCQK7gqU4GlgBSQAlIgRQUEcikKqOSxV0AgF/tbQALkgwICuXyoBZVBCkgBKSAFsqmAQC6bautcxaiAQK4Ya1XXVHAKHDv7pT00pLTgyq0CSwEpIAWkgBSIqoBALqpySicF2hQQyOlOkAI5VKD17l27ceuO7W++ZL/+cKXdvN2aw9Lo1FJACkgBKSAFsqeAQC57WutMxamAQK4461VXVSAKtFy6Zg8PLbP/eH2h/c3zs+yVqesKpOQqphSQAlJACkiB1BQQyKWmn1JLAYGc7gEpkEMF7rTetXdnbbJvPDPD/urZGTZg9qYclkanlgJSQApIASmQPQXembnRZq/dn70T6kxSoMgUEMgVWYXqcgpPgaMtl+1br8xzr1zljuOFdwEqsRSQAlJACkiBXipw7vJ1e2Z8tQ1ZtM12HztvV2/c6mUOOlwKSAGBnO4BKZBjBW7fabWXp6yz/3pzkZ26eDXHpdHppYAUkAJSQApkXoHxK3d5NAoRKX/93EzbceRc5k+qM0iBIlNAIFdkFarLKUwFALgRS7YXZuFVaikgBaSAFJACvVRg5prGdpDrM6nGLl250cscMns4E5GF7dYdTUSWWbWVe1QFBHJRlVM6KdCJAle+umVMYNLUctl2HT1nm/efsepdJ2xl3VEr2XKkfVu88ZDNrz1g89YdsLk1B2zW2kYbuXS7/8/3bdtBW7LpsJVs+b+05duPWc3uk1Z/+Kw1nrhozeev2IUvv9Jsl53Uhb6SAlJACkiB/FVg/d5THomCR65sW1OPBSUUc/uhs4YdxIZiPxlfx4YdXbThkJXUHbXaPSeNtVmTnQX66le3PLSzYsdxm1970D6r3GsTSne5TaaDlW308h02rWKvzanZbyu3HrX6I2eN8uglBXKtgEAu1zWg8xeUAl9cu+lLBazbc9KWbDxkU1btMcJDRi6tt/fnbvaJS976fIO9/tl6n4HypUlr7cVP19pLk2qs7+Qa6ztlnX//6tRa6zet1l6fvv5rW7/P1vs+9nMcaTzt5BrPi/xembLOj+Fc/Wdu9ElShizcamOW77AJZQ02o3qflW9rsm2HWuzEuSum3sSCus1UWCkgBaRA0StAR+Qjw8rsu28ucvDq7II5BkjDxmIvn5uwxv40usL+Mq7K/39h4lpje37iGv+OfU+Pq/bhCgNmb7bJq3YbwNjaeve+7BnSULO72e0lE67gEfS0n1T7/9heZtRke/PzDYZdxg5znj+MWu3nfHvGRrf/5H/3/uzvO5c+SIFMKiCQy6S6yrugFThw8pKtqDtq41bstEHz6wxoem1arRsIwIxxbcw4yb5hi7d5jx0QNbVij4PUgvUHbemmw957uKah2T1pGI61Dc22Yd8p23qwxUGL944bAFZ34IwBjBxPOrbKnce95zJ49D6v2ufnCzAJzA2cu8WNT9/J67yMrwGNn61vh73plfv8/OpNLOjbU4WXAlJACuRcgTOXrlnt3lMeRTK2ZKd9uGCrfTBvy9e2jxZutYllDR5lsuPIWQOkeAFH2K3wOVwQESfDF2/3yVAAJyCOz4AZXjFsK148JgjDLq6qP2bLNx+xhesPGiGbn6zc5Z2r2OqnP6k2oGt1/TGjM3bZ5sNuy58aW+k2cvD8OptUvtuw2SFPvHMcHzY+cy7eiZSZvGqPXytLBv15bKXnj43WSwpkWwGBXLYV1/nyUoEvr9+0DXtPORTR+4bXq8+ktfbylBo3BvQGAmmAE6EXAB4hk8AWs23tO3HR9hy/4P/vbjpvDU3nbefRcz54mzBIwkESN0CtI7x19jkxDf+TFyEdDAonf87D+SjD3uMXPNySkE5AEaODYSP8hJAQgHToom0OeS9PrnEvITA6aF6dh6k0Nl80FijXSwpIASkgBaRAVwpgqwg1BMKeHb/Gt2fGr/FoE4CJ6BRgjk5FNjxjfI+9+fPYKntidKU9O77aQeiFT9e6xyyc6/rN2w5hwBsQ9vGyHQ5uhFMCa6Vbm9z+MlQB+waUhc2HL9Qd9f0AGdBFGCShkpTjN0PK7InRFfbEmEq3e9Mr9zq4cRz5EpbZMc+Qd+I75+F4II/IF+xr/1mb7HcjVnmnLrColxTIlgICuWwprfPknQJ4pPBsvTZtvf3x49UeTvHOjI02pmSnzVrT6MYBGNq8/7SPd3NQazrv/wNSQBUGDZjLq+2ep4/yUU7ADtCj/EAgkIfxoecSA8TUz4SCEp6CgaV3dMuBM/bVzdt5V2cqkBSQAlJACmRfAewBnYJPjauyJ8dUesg/kSh0cE6v2ufhj9hTwAnAAY7CBoQBSYxhw7bi/Rq1rN7h7uGhZfb7kas9RJHOSmAPiMOjBjwBb3ScJgNYibAV/ue8jDlnmYOfDSzxKBrGpFMmYCxqviF/0gON2FSicfDOcQ2EhOolBbKhgEAuGyrrHHmjAPCGMekzucYeH7naXppcY2NX7HSgw+gQ644xCR41YMjDHPMR2KIAZIC8I23XyHXWHWzxsE+MESEr9KRi9P7w8WrvxdzYeNpn7sqbSlRBpIAUkAJS4GsKMA7s2o3b3nFH6CEh93jD+nyK56zaPVGMSXtqbJWHGzLWGhhjTDXhiWGCkI6RGezDkwXAEZ1C6CLQBrywAW/AVmdeskTgAao4NoAPIYqcG68b8Pb9d5a4Fw7wIl+OD+mjvlOu9+ZsNjx/hGVyfgAuan5dpQtAx/MFnsRXptb6xGdfqyR9IQXSrIBALs2CKrv8UwDjBsBNWb3Hfju0zBtZ/sdQMAYNrxphinirigrakgQ9rh94DeGaeCAZ04dhGr54mxtvvHV8x0OCXlJACkgBKZAfCuApO3b2Sw/5Z0jAg4NXuleIIQKEEzI2DfgiFBIvF2O7CLMn8oRQeyb68IiMT9fa70ausgcHr/BJtgCSQ6e+sE/LG+zBD1f6scAhEMQGtHUFNcl+H0IU8Y4Rpvn4qNXu2UsnaGHHwoyWQFw6yt3d9VF2ol2YjGXYYi0plB+/kuIuhUCuuOs39lfHQGx6JR8eVubx+zTimxpPO7wBbgAMHqm8Co1MEsAyVWbADm3YOAehmIRgPjmmwmcJI2xGYZex/2lJACkgBXKowMUrN7xzjVmNf+Xwtc6nycdbhkeLiTvwmgEdeLbwTLEBGuH/4PHiOI4nHePGmLCE2SF/MWiFLw9AOCVAB9xhQ4Gj7mCmt/soD55DwjRDmXqbR3fHU+ZMA1zi+ekkJnwULyPex/NffqVO0Bz+Vor91AK5Yq/hGF8f47yAD8IcaFgBNsAtjl63qNDnUHcvvBRPHQ8Jj49qG9CtWS9j/OPSpUsBKZATBVg0GxhjJkbCJIcu2uqAhbcMwEqEtAAwfN8RvsJ34ZhE2AvQA7jhvSMs86cDl9vjI1e1j13rmF8iyET5P5Q/Stp8S4N+eP/wkH7n1QWu35CF27xumA377Bdafy4nP54iPalArkgrNs6XRSgl490I02BAdfC8ASVRgSb26cLYusNnfTkE1thhli5CevSSAlJACkiBzCuALWMafgBu1NJ69zIBYL6l0VMGpDng3Rv3Rv5MEEK7z+yTeO8C7KULogJYpiu/XOeDJ45QVsbnEdrK0kWPDiu3n7y33CdWY/ZroE4vKZCqAgK5VBVU+rxTgKUAfv3hSg8RYeybAC6Ns2oSdnn4rIenMikKYT1abDzvfgIqkBSQAkWkwJ3Wux7K+OuPSu2dmZt8HbMw3ivdnrHOACiAHd4+oK6zY/Td/y2DELQAdoNm1Bdwx6ydLPlDR/Ojw8p8zKI6RIvox5qDSxHI5UB0nTJzCrCoKKEgLNTNtPsa/5ZGiEsYuwcg1+45ac9PXOOhqpmrUeUsBaSAFIivAle/uuWdkr8dWuoeHmBAMPV1aArwlM/vDsR1bUAH2I1Z3jZb59PjqryDNL53ua48FQUEcqmop7R5pwALe7MoJ42kj4VLgI/Yh0emUYu2cYZnHJoZpK6XFJACUkAKpF+Bz6v22UMflfqi1oz1zoYHLp9hqFjKRj36+npbjni46iPDyn0Mf/rvIOVY7AoI5Iq9hmN2fV9cu2k/eGeJhzAI5DLjjQOIPVz1YIvPksaSDnpJASkgBaRAehWo2X3SHh1e7jMgCuIK0wvXE3gSeomXlTHnj40o9yUf0nsXKbdiV0AgV+w1HLPrA+T+vd8Ce3/uZl8XTaGVmYE5xsmxLAGD7tn0kgJSQApIgfQpcOHLr3x9NyIe8NzIE1ecIAfo+Ti6LUd8dsvhi7fbjVt30ncjKaeiV0AgV/RVHK8LBOS+9co8+8n7y31AuK+Fptkq0zpbJ55ONhaYBZqZiUsvKSAFpIAUSJ8CzLz8h48rbE7Nfl9uoCfPjvYXLuix9MKq+mO+jt5jI1Z5J3T67iTlVOwKCOSKvYZjdn2A3I/fW2ZDF23zkJTpVfu8UWwb06XlB1IZJxjWlGM9uYFzt9gToyv6WalMAAAgAElEQVTs42U77LHhArmY/cx0uVJACmRYgcmrdlvfyTW+lI4grXAhLdm6w+PK2P4/flxhgJ1eUiBZBQRyySql4wpCAUCOhUtZDHxMyU77zZBSX8Nl3Z6T7kUiJFDhlr0LtwwABwTSa/jK1HX2h1GrfR0hYvvlkSuIn4YKKQWkQIEowJIuwxZv80kw8MwlCwM6rrCBr3LHcXtmfLUxwY1eUiBZBQRyySql4wpCAUDuJ+8v81DCHUfO2cw1jfb4yFW+TSrfbWsamn1mKPZpMpRugO5gS7tOAFzp1ib7cMFWnz2NXmIG3rNeH72IArmC+GmokFJAChSQAiwm/ebnG4yHewFaYQNasvVXufO4j5ObXrm3gO5UFTXXCgjkcl0DOn9aFQggt6nxtK/LAqyx3hlhKgAHYQsTSnf54GK+Zz00Qd09oLsHb6y/t/3QWavedcIWbTjkAMcC66wZt3jjISO0kv0ch4ESyKX1FlZmUkAKxFABJrg4/+VXduLcFTvactk+WrjV/jKuyjvRNNFJ8YMcawMSUvn7kau8zmP4E9AlR1RAIBdROCXLTwUSQS6Mi+Md8ADcGNP18NAybyzfnrHRJpY1eOPJDIy7m847nDBBik+vn8Z111IZm5axtAfbJi0BZMO147GcW3PARi2rt75T1rkH7skxlT7gnnKgY9AGCBbI5efvQKWSAlIg/xW4eOWG7T1+wap2nvDFvt+Yvt5ob1nS5X/eWWK/+nCld0ISEZGsV0fHFR70AeqE0H4wf4u9MHGtNZ+/kv83r0qYNwoI5PKmKlSQdCjwNZALMHawxQEkgMiC9Qd9/AHeJCbtIIQFyCMUE6MJtOw+dt4BB7ALUJgxqArlzOA7AMb1A2BcGx414JZewCmr99iQRdsc3lhQHc/liCXbfdprxhUG3RKvXyCXjjtWeUgBKRA3BfC4AVysHcY4bpZwoeNs0Lw6G79yl82o3uedZ0xFT9vM9PS5BjRgA9uYD2VBC8rDGO18KU/U+uE6WF6Cen5w8Ar789hKO3DyUtx+ErreFBQQyKUgnpLmnwJdglwiICWEEDLxCQOLX51aa4+PWu2NaJ9JNdbvs/U2eH6dTV61xw0owAP40HsaIAjAA3DybfKUAGx42hqaztue4xe83JSVnl8gdtyKnTZg9iafuISQSWD2T6Mr7IN5W4wQj/tCTrtYvkEgl3/3v0okBaRA/ipw5fotB5CnxlUaHWasdzprTaM/yDPumFkLfU2xuqM+mZT/v+VIXkAcYfWMM6ezMyq0pDMd5fm0vMH1S2e+2cyL+gXiGO7x0Eel9uLEtfbatFr789gqwVz+/ozzrmQCubyrEhUoFQWSArkOUAeQAWeADhBDo4qH7ulPqn17bsIae+HTtd5jSjgmnqrPKvf6OnWEIgI0jScutkMe8AT08X2APfLGqwdkha1HAEw4NsAZ+eAhI1/y51yERQZYYwISjiVMY37tQQ8dZZKS16evNwCV6wDcnv6kykM4eJBgYDWDrMmLjXP0WLYDZ/z8GD2NkUvljlVaKSAF4qDA6YvXbMjCrfbYiHLD0xYe4rE52YSHKOeijAAnoZ7YRvIoySFgcm7K84P+S+yN6W3lwbMV5dpylYZrWLj+oHtlfzawxJ8vwnpyPGcweyX3jF5SoCcFBHI9KaT9BaVAr0GuI9QdbpvEAyACmAglCWGHGDBmbHzx07XtQERj+9S4KgP28OoNmL3ZjTQzjgFI9BoS/rG6/pjV7G72iUKYiGVj42kHITx8nW2AGeDHcRzPBCPAFtP/Y1Tn1x7wco1ZvsMfDt6ZudFemlTjjT8D5J8dX+3ARln5nrCdd2dt8rFvs9Y2+kQmAQABQoe3RC2S+J90GEGBXEH9RFRYKSAFsqwAnrixK3bao8PLbO66A97Rlg0Qwlbg5QuwEsIjE+GR/4HKcAz/Y7MSwxY5hsiV/3h9ods+8sQWYR8TAYr/2Yd3MTF9yLvj/vvKsaUtbTg/eZNX4jHkw2f2EVmC3SMUNeSPpuzj/LwnatzduUP6bL0HiMP7xnjI9+Zs9rJybexDA0IsWYKCSXD0kgLdKSCQ604d7Ss4BVICuY7wcrDFYQ7vGmAV4A4vHA0+4xgANkIwgSR60fB80TgDTkAUQIVnjwHshC4y9ow12Hhndip6Z7vaWDYhHE8awh9p3IFHwBEPG2u69ZtW672SGDUMAouhE3Iyp2a/GzMmcuEaKD/w1g5uXYRMJo6D6+5/gVzB/TxUYCkgBXKgAJ1xDw8rcy8SnXp4XjIJDQGusAPYKM4FJNAByERWRJQAC0DDtIq9Dpl0OgJOUyv2OCBhzyaUNfhxHIu9+++3FnnHIFEp7Ac0uBbyYeM8dC7S6cl+Zovme8oTIIWx6HjR6PQMY9LZj70Cdjk/kSKD5td5WadX7WvPm3JQXtaInbfugA99wDPHeSk710c67DB2kGsijZ9/y5H2sjGsADAF9jJZD13lTXmYERotuB7AM+hHGsqMHr8avNKfPXJwy+qUBaSAQK6AKktF7VmBtIJcR7Dj873xdYQ2AkeAkY+bazrvHjSgiWn7iXunscbYYKzwzmHUCNv0razBRi/fYSOXbu9iq3ejhiENaTBw5INHjd5IDCMhlGsbmt1rx5g4gJONEElAi3JmaqIWgVzP96OOkAJSIN4K3L7T6gBH51u21oTD9rAxmcpP3l/uUABAAkDfeW2+dwLiUcNrRicjUSWE+THh1f97d6k9dG8CFmbOfOvzDQ482DE+k55JOYjE+N7biz09wMT5GFv+v/2X+Pg/8mA/HZ2ACcfQCUkedF7+cvAKI6QQ8MNeUraff1Di5//+24t9H5PAMAyAcpI/+dC5SZkBoJ8OXO7l43vglHL9+L1lvm4sYZccCxCxn9kgOfejw8vbj8P+5hLmuC4AtCPwca3sI5qG5wbuIb2kQFcKCOS6UkbfF6QCGQe5zuDuHuAxNg1oCuPYACtgB+ALY9kAv/btWNvYtgBfHd/DrJnh+DCGjfwCpIUZJTMFa/LIFeTPQIWWAlIgTxS4fvO2e7aImKDjreNDe6Y+09FHR+C3Xpnn4f6AAVD2jWdm+EyZgBvjqP/rzUXuQcPjBugQQcL/dEISWfLdNxc5ZOHtArD+vd8C9yQBSESA/Osr83ySLDoZgSdC++lopMORSBKiUvA+MZHWt1+d72lY4oZzEFb4i0ElvuQNQPfPL8/15YEIl2RIA1EtlG/22v0Oe3gYCe/E20f5vv3afB/SQP5ErHzvrcUeask+vG5cOzOBMibx3/ot8MgZzg30MdkMkMuxid6wTNVHb/Ol/ig3ET7cQ3pJga4UEMh1pYy+L0gFcgZyXQFeEX8vj1xB/kRUaCkgBbKoQOvduw4tT4+ryjrIAVSAEt4ogAXIAsZ+OWiFAw9hlsAb4DRw7hZ7oO9chwegjNBDQicBNTxDwBKhlcAVXiw8fMAgnjW8XIAbYIRHD2gj5BFo4rwcxzF465j5Em8a+1+ess7hjVBNygB48T95470kLBSQA8oYY85QAvIgOoV8gTrCNClvCPsMnkZCPgE/AJRhDFwnoZscC0QCtVwvC68Dub0FrUwf7yBeusuHUVz96lYW71idqtAUEMgVWo2pvN0qIJA742vgdedJS9c+gVy3t6J2SgEpIAVcASar+u3QUvcsZSuUDy8TMAN4AW6E6DPFPWOqgTvGoQFoeMXwrvH9370wy4EIeMITxzueLIALrxgeL8I1uQbCFR3QhpV7OCPeRsCLvIE/vG+EOgJPHEcY5T+9NMfzJ++w4eEDKAE50gBfgBX54zF8eGiZQyBgAzQSVsk+QBCQYzweywThnWPcXQhV5PoJ2aRchFv+Y5857ecM1xdCP3sCuRDWyXn5P9MQR/5cL1Db7zN55NSMdK+AQK57fbS3wBQQyAnkCuyWVXGlgBQocgWYtZJJOBgnB2gABNmAAc7DWGy8cCw986MByxzaCCtkY0waXi7KxKzLQBseKzx5eLLwqBHiyDtj5PB6AU6AHPDDuDfGwrEsAeAE7JEWjxvA98MByxy2AC0gErALeQNpePHYRz7AHCA3sawN5AAmJgHBG4eXj/F3vLOcDnCGVy145Djff77R5p0LMztTHsCSyVIAWSAQ+AvnB145N5697uCMfZSP81Fe8uXaec9UHXJONO4zaa17MO+03i3yX4guLxUFBHKpqKe0eaeAQE4gl3c3pQokBaRA7BXY33zJJxXB84W3BRjoDiDSAQkAGnBFyCNhi0wesm7PSYeiv39xtoMbY9MAI4APTxrjz4AUwhuZDIS0rH8HeAFywB9QB2SRFo8aYYpAEbDEDM4hvBHoI3wRGGSsF16z4HHj+oFI0jBmjbwoYwA5rp9jSAsEMn6Od66H7wErwBM9AU1gkrLh/QOCGB8I3DGDJRDIsVwj5UYXrpNrI9SzO7CmroA+PJvMPM314d0E7igH+9NRV4l5kCd6/3JQiY+vj/2PRwJ0q4BArlt5tLPQFBDICeQK7Z5VeaWAFIiHAkxcxcyNTACCdygAT6aADiADODjn3z4/y71pVTtP+GQlgBFhkHiZAB9AgolO8HIRvvj8xDU+Hg1AAtyAGcanAVvMBsm4O5/h8qNS92rh6QJ0gD2uL+znO8rAeQAt8mAfk5MAV/zP9TMVPzNiJoIc5WdjqZ1vPjfTgYxwSUCHMgFqAYwJQyT0k1BMjgfS8MQBiUDRrz9c6bNoUjauj+tkzOCSTYe7BepQN3gqmbAGGMazSLlHLq339ABdOC4RyKL8z/VSH4S9Mm7x6g2Nj4tH6xD9KgVy0bVTyjxUQCAnkMvD21JFkgJSQAq4Ak0tl30yECbgYNZHAAcvEYCCp4gH+XRBASBBXnidwqQgnINwQkIfgR/G0XEM5wVq8DgBK3i/gAk8X5QPGGIfXjq+B4wAJg83vLfwOJ4xwIpwS9ITrsm5AC824DWkBbgYpwfkUSZACQ9eyC9AEFCDtw+PHlDGsZQXcMSrRvikl7/uqI1bsdMBkbIBbORJ+nBuZuGkbJybkE0mcOG6w7m6ew+AxfnxKgKBnIflEdAXjZLNq6vzkJ58WAOPJRqOnLmsX40U6FEBgVyPEumAQlJAICeQK6T7VWWVAlIgfgq0tt71sDzGzT0xutJembLOwxcJIwRsgLrKncc95JGwx1Q9PoQOOmjUHW0HNz4DJYlQARBxLsIq2YL3K8Ae+wAj0ibuD3kEEGlP3wFuACryDPvDdZF/SNsRhnzfvXSk5zPno6yUIzEskuvBy9lp2bo4dyh7su+cN+gJwOFZBOgYuxcgM9m8Eo8jLRthrI8MK/dJy+L3y9AVR1FAIBdFNaXJWwUEcgK5vL05VTApIAWkQIICeKu++8ZCnzkSICBk8fFRq31Ba/4n1JEN4OuN9ygREPR/G/hlQgegFqjDu0coJx5CPgN7yZ6PY4FP6hdvJvW/qfF0wl2if6VA9woI5LrXR3sLTIGMg9zBFqvruPW0Vlyyx3Ncsnn1dFwW9mv5gQL7cai4UkAK5I0CSzYeskeGl/mC1cwQSRggYYuEPBKSSAgiM00SIjh4fp1P4oFHKllA0HGZA7hEbYMnkfXomBWUcNWeYA54Ix0eSd7xwhHySWgpk+LoJQV6o4BArjdq6di8VyCTILftUIvVHz5r9UcStsNnje87A7CtB1ts+6GEY++l4zv23ZfmYIvn21Ve4VjOT/rwGaj8Wl5ZgDjOL5DL+5+DCigFpEAeKlCz+6SH4w1fvN3DA0NYHaGCeGcIpyQ8kO950O+NhycRMvR/9mAOKMMzxyycPi7w3tg76i5s1CUwjicPDxyAznhExtlRV5eu3MjDu1VFyncFBHL5XkMqX68UyAjIHWxxWMPI0lAT+vDosHJ/Z7A6Mf8AVjtcHTjjsLWx8bRPU8yMYcTQM/sXM13R87rlwJl2AATEMNgsujq1Yk/794n5cQxpmMWKxp/Qi/AdDwXr955q8xRmCeIEcr26LXWwFJACUsAVaL171z1u2BJsSndetuC5EchlB8hSAV9sOJO9PH5vEpvgbXN4uzf7Jp5XvK48E7BAOjYf713z+Sv6dUiByAoI5CJLp4T5qEDaQe4exLE2DWETD7w012PhATmmXv6HPnPsx+8t8wZ8x5FzDlN4zDDQNOj/8vI8++6bi+w3Q0od5pjymOmbWZNmTUOze+E4npm6yIvpjfH4efhmApQFaKO3j7wAObx3zG7F7FmVO47f76kLaTt6/sL3aXiXRy4ffwEqkxSQAvmsAEsQPD2uyhfNxk6kAg9Kmz+AF2AbG05nL1A3fuUuD50lRJaZMn/2QYk9N77a18bbfey8nbt8PZ9vVZWtQBQQyBVIRamYySmQbpALAAW4se7O5FW7bW1Dsy+qWrvnpI1aVm9/8/wsb6RZnwe44XsabdbtoVEnRIZFWPmeXrrnJqyxv35upo+B2LDvlKdhWmYWaGWwdGcgF8AO40DYBhCHh46QDAATrxwgyXcc2x4CGkJB8RimGeoEcsndkzpKCkgBKRAUIHriqXGV9nnVPrcHgrH8gbFU6gKQw7s2ZNE278AlAocJbFiQnNlIsf+nLly1S1dv2J3Wu+F20LsUSFkBgVzKEiqDfFIg3SAHMAFu335tvodTAkj0pAFbgBPv9LaxCCrTRrOPhvzvXpjl6/YQgshxeN3YAmz9YdRq++azM2161T5raDrfo0cuhFkChXjf+IzReXR4uf2g/xJfHBWYo7xs1btO+AKuGJDZa/f7Z84f8knHu0Aun+58lUUKSIFCUODY2S89imLM8h0+Hi54clKBCKXNPQxSj4RRDpi92W0/C3lfu3Hbbty6Yyw3oZcUyJQCArlMKat8c6JAJkCOsW7/884S+/d+Czxcgp41B7qm8w5uDEzHkG7e3xbuyHg4vHcMWnfvWocwxl1Hz3lYDWGXzEiGFw1PW7KhlcAb5ySkEmDEI/jtV+cbDwbMeIXHjt5AQjj/681F9q+vzPMZsVhAteNYvlSATiCXk1tcJ5UCUqDAFWDhasLvaKuJ0hCI5R7EUq0DvHFMYPLnsZW+sHqB36IqfgEpIJAroMpSUXtWIN0gRzgi4ZUMUAa8gCa8aUw1TGgMjTceMMY98M4iroyD+/kHJUbYZGdesOAxY4zdD++FRTIIOhmQY4A0oEjePATw//feWmw8GDDmDngkXzyEfEcv4YTSXfb9txf72D7Kx/lTAbiQViDX8/2oI6SAFJACHRUgvO6N6Rt8jbg5NfvbF95OFSaUPjdAiJ0FyIct3uaArtknO97x+pxJBQRymVRXeWddgbSD3L0xZ8Dc2BU7PbzyP99YaN94ZoZvANJbn29wDxmeNsIr/63fAvvT6AqHrc6gibyYrIQFRAEuQjeTBblfDCqxhz4qdS8eHkDGyP104HLP48DJSz4mD9jEw0cIz6FTX/g74ZWMwftwwVajnAHGUnkXyGX99tYJpYAUKBIFzly65mvG/X7kao+mAAboiOtuFkuBWm5ArTvdqTcmrWEYAx24zF6plxTIpgICuWyqrXNlXIFMgBxeNeAHrxvgQ4gii34ydTAeMqCOmSTxiDGGDZAj/BGvWVcgxz5mu/ze24sjgxx5PDWuyoGQiVb2HL9gT46p9ElWWEyWpRGYPIV3ZsmknIR9cFwqABfSCuQyfjvrBFJAChSxAjdvt/o4aSbFYBKskUvrbX7tQe8YZFkbX0eui0XAGY+FF4jjBH9dAx5RM2jVHYxF3Ue+wPeEsgbvYB1fuquI71ZdWr4qIJDL15pRuSIpkHaQO9jixnLmmkafdQowY9wbk5qwMakIa8MBScxgyRg0xtOx5ACg1R5aebDFZ6f0CVIOn3XDizfuoSGlvgYcYZLJhFYmeuQSQY5ycK7HRpT7uDnCK/H4AYvMaglw/nZomb0/d7M8cpHuLCWSAlJACmRGgX0nLnoIfJ9JNfb7kau8k5BJs1hXlI5DYI2weMZGh8XCGY8F+DG5BpNmCeY6h7nPKvd6xEs6YS6EUgKAg+bVuR1nRuu7mtMkMz8Q5dqtAgK5buXRzkJTIK0gd7DF4QhjycyQhE4AS4RGulfqYIs1Nl/0MMZ/emmOvfn5Bgc5vF+EMWKEw4yVzCg5qXy3zySJ0R40v85nrRw8v87BkHESAeRI4+fgPPc2PjMpSlcgh0du7/ELHtLJRCvkxznDLJe8E/bJw0B7+TtMwhI8bcm+yyNXaL8OlVcKSIF8VoBw+NKtTfZpeYNHUzz9SbU9Nrzcx13htSOigigMIi9Yp5QJU/pOrhHIbf46xAG2rM+KhowTR9eonreQLnhB8ZQy1IJ6YMIy7KteUiBXCgjkcqW8zpsRBdIKcgfOeGgkUASYAVFM/U+YJZ43gIv/8XKxlAAeObx0SzYd9lkkgT/gCcCq2d3snjtCKZ+fuMYnKGGiE0JjCNkMC4IPmL3JQx+BJPIPG17AzkAOw84YOfJnjNy7szbZN5+b6YaL81Ie3hkjx0yWTIBCnsnCWnfHCeQycgsrUykgBaSAnf3iutsG1p3DC0eIIPYETxw2h85D3oGMdHqbArT09I5XqqdjcrmfcWt0mAK7TEzGZ3Si3MluHA8Qoj3pCXvFA/fHjys8Xzp3gW+9pEAuFRDI5VJ9nTvtCqQb5MIi2v0+W+/hk8AXnje8dIS+0Dv6wEtzfQFwIA9Iwms3pmSn/WOfOT79f79ptf6ZxcFZJiBMlDJ00Tb3xpEG0GKRcPInvIa16cJGj9/EsgYP1QQmATImOmFZBKCQ8zBeD4NDiCUhlZwHbx9Gf/TyHR7qyVp4hHCmawkCgVzab19lKAWkgBToUQHWKANOCJdnDDTAFMaCZQuwOE8uADIZOHQA23LEYetH7y2zwQvqfK1VbGS32z1wC8fQKTt51R4PX2W26p8OLLG+k9c5UB88danHetIBUiAbCgjksqGyzpE1BdIOcve8cqwdN2ThVg+xBJxYiuCBvnN9rTbAC89aGA9H6CJj6RhX98iwMj8GsGJZAsbFAWYsG8D/QCFARk8ra75957W24zg2bKwDBwTSM0t4DeEcpAEAif9nFk08hh/M22KEbS7ddNh+N2KVrx/HWD3WkwP+8PqFMnbnaUt2n0Aua7e1TiQFpIAUuE+BO613PfSezrzfDCnziBDsCBDjUFd31D1PyYBPb44B4AAcZkAGcoCebMFjMuWkLIwpxFv5zPhqX7MV2P3t0FKfVfKJMZX28pQat71EwHAdbBzP5GCEqrJGK7abMeaEthLpQqco9hVPqV5SIJ8UEMjlU22oLCkrkAmQA2wCAOHxwlDQG8oU/xiM9klNwti5A2d8HBqer3V7TrpRBeo4HuDjeGa4xIhgaBjfhueP8BlmwCLP+7ZtTR46SWgl5yct/wOMeOZIR8w++/iOsnJegG5G9T43QCxx4DNoJpQxWWDr6jiBXMq3qzKQAlJACqSkwOVrNx3eWMYADx2hf0R4AFtAHWPDUgU7bJ57ueqOtuf3+vT1Hv3BeL7gwUoGtDJ5DOUgBJL13H7xQYnb1tt3Wg0P5rnL1334AePE0Wf8yl02ZOE26z9roy8DQUcokTZTV+9xDyc29sS5Kw5uV67fSqmOlFgKZFIBgVwm1VXeWVcgUyAHzABJwBnj1YCl8H9nSww4/NyDKo73YzukxVDg6QPGPG+O62IL5+C8ASrDOUiDdy4cw/devnDee+8hTNTTpTjRCXkI5LJ+e+uEUkAKSIFOFQA2gJQ+k2t8FsVnx6/xKJLplXu9ExGPEkAG2AE7vNMByAboJW58x346HtnYh7eP9U5nrWn0UH+GG/zvu0vdyzV88XYHR9IAfJmEtc7y5rooMyD30cKtPp594fqDXc4i2Xr3ruHRvHWn1W7cuuMbS0HwubVVU092eoPpy7xVQCCXt1WjgkVRIJMgdx8A9daz1cnxwFsifN2XfxpAy/Pr5LzpOo9ALsodqjRSQApIgcwpAKQwAQdeJ2ZQfnhomT01ttJYW3Tg3C0+2yJT5U+r2OsRG4AZE3oxfpqoEdIRyQEAMpkHMz4Cam9M3+Ahh4QaEnZIuGFF/XGHQz6TP3kCcj6xSBfr33UGYlG/C2AKQHIdjBWnfMCnXlIgLgoI5OJS0zG5zqyBXLpAq4DzEcjF5Eely5QCUqBgFbj61S0PxQfKGAP25NhKX6aGibqem1DtC5E/P2GNPT9xrc+s/OyEap+yn3FijMf+0+gK/55wRbxcjScufk2L4+e+9HHcQBTjuVlqBw8eQwSAqnR66YA3PITkzTvQSTgp6+8R7nn49BdfK5++kALFrIBArphrN4bXJpA7k5alBZLx2gnkYvgD0yVLASlQ8Apcv3nbx3/tOX7Bw/rDOGs8W4y1JlKkqeWyYU978yLKpN9ntfbHj1e7hw74Yz1Vxuux1hrwxTkAsGTgDmgjXJKwSYCQcvKOB5GZoZksjMlLmHCM8eV6SYE4KiCQi2OtF/E1C+QEckV8e+vSpIAUkAJ5r8DuYxd8Fk2m6metU5bS6T9rk41Yst0I6wTECKcE7li2B0Bj43P4n++BPsb24XX7ZOUuXxfutWm1vuwP8MY6cUwWpnFteX9LqIAZVEAgl0FxlXX2FRDICeSyf9fpjFJACkgBKdBRgWs3btv6facc3li+Bwh7elyVL6Pz9CfVDniMa2PiFMbgsbHu6qtTa30ZgOcmrPHwzqfGVvn4twGzN9u4FTvdS3fywtWOp9NnKRBLBQRy/7+9O33O6izjAPwnOuOMo+JYt7Ef7FStrbhUrU4ttSDUFlqEsgvaApbatEDYExJCWAOBAA1QFgmEVcpSoITbuR8IA1iElnOSvOE6M2eyvbnPea5zvvzm2R7Lxz56Gy3ICXKj9+3WMgIECDSuwIlzl8p8vexpW9zeW/Y2zR66DGdTmrpiclNX+X7a8u6y2EouwJLDK3P7nJz7lqtKOggQuFtAkLvbw08NLiDICXIN/gq7fQIECBAgQDU2bY8AAAhGSURBVIDAQwkIcg/F5EONIiDICXKN8q66TwIECBAgQIDAowgIco+i539HnIAgJ8iNuJfSDREgQIAAAQIEahAQ5GpAVXL4BDLIfeXF96Nz3/H6N9tu4D3gHmZ7gQd9JrcfyCWkczNYBwECBAgQIECAwNAKCHJD6+1qNQtkkPvqS03R3tMnyNUZNHv7Y9v+k2VZ6Kemrqn5qSpPgAABAgQIECBwr4Agd6+Inxta4OKVa2Vz0NyEdPvBk7G5t3/INsh+UA/WaPr79gMno2Pv8Ri3aHMsWLe3od8ZN0+AAAECBAgQaEQBQa4Rn5p7vq9Abgy6pGN//OjNNWWZ4wxzm+rsmXoca/f2x+4jZ8pGrd/7y4o4eurCfZ+HPxAgQIAAAQIECNQjIMjV46rqMAqc+eTTeGZGS4xbuKkMsdz58Sm9chUFzi29/bHr8On418YDZTPXact2DuOTdmkCBAgQIECAwOMrIMg9vs9+VLf85H8ux3OzWuMXs9tizY6j0XPkTJnTNZqGNw51WzIQdx86fXNe3Jtryoato/ol0jgCBAgQIECAwAgWEORG8MNxa48mkD1zryzeEk++viqmfLAj2nYfK71JW/ebN/dFQmDXwVNlKGWuUPmbv22IXNwkv3cQIECAAAECBAgMn4AgN3z2rjwEAlc/G4hVXUfihfkd8eSU1TG5qass0pFzvCyGcv895zLsZu9b9mQu33o4fj23/fZQylzoxEGAAAECBAgQIDC8AoLc8Pq7+hAJfHL5agl0v5rTFt+Z1Fx6lt5p/ahsUZBDBnMp/Zz/VVa5fNxWurzV7mx/9r7tOnQ61u8+FjNX7I6np62LH05eFW98uKME3yF6XC5DgAABAgQIECDwAAFB7gFA/jy6BE6dvxwb9vTFtOXd8cxbLfHtic3x+wUdZaXL7IXKXroMdfl9nqMu3PXebFO2K9uXbc0etgxw6TJvzZ54dmZrPDGpOV58u7OsTJkbf2fPpoMAAQIECBAgQGDkCAhyI+dZuJMhFPjs+kAcO3OxBLXXm7ri+6+tjG+OXxZjZ62PNz7oKnPANu49Xnro7gw9GXwGg97tkFfRipBfZN7a//3srbA2GNQG7zm/3r7n3v5o3XUs3mndF6++ty2e/uva+NrLH8bY2evjn+29sefo2cjQ6yBAgAABAgQIEBiZAoLcyHwu7moIBa5cux4nzl0qC3rkHnR/Wrw5cn+0b01YFj+ftb4Enflr98TK7YfLkMNcNCV7rzr3HS/BKHu0sifv9pk/H7g78GWAujNEPfRG5XcM9xyscWdA+59r3+pRzKCXG3a39/SVRV4ytL3feSDmruqJP7+7tQS3MeOXxY+nrYupS3fE2p1H4+CJ83H6k09j4MaNIdR3KQIECBAgQIAAgS8jIMh9GTX/M2oFMsNksDt/6WoJNku3fByTlmyLn0xviTETlsWYCcvjp9NbyrDD/P1bzbtK793qriNlDl5+ze0OWrr/XXq8BgNfbkqeQawEr1tBL4cz5vy8zztzOGMJhneEwgxnGR479x6Pjj19pX4GsNU7bl47g2Yu7PKPln0xo7k7Ji7ZFr8tq0yuja+/sjS+++qKsmjJzBW7ShDN8Hrh8jXDJkft26xhBAgQIECAwGgWEORG89PVtkoEBgZuxLXrAyXg9Z29WIZbZs9droD5/Lz2Ms8uh2X+4LWVpYfrl3Pa4oUFHfHSwk2lNy+3Pshz6tKdZQ7a3NU9keeito/Kxtq5ufa953sbD5RANvjZWSt3l56zHPY5pamr1P3j253xu/kbYuzstnhq6tqyiMs3xi8ti5Pk/LYMbM1bD5WVJ89euFLuP9uR7XEQIECAAAECBAg0toAg19jPz92PEIFcDCTnlPX2nStBL3vJ3t2wP6Yv7y6ha9zCTfH8vA1lgZWfzWiNZ2e0lsD1xMTm+NxzUnPZr+25ma2Rn8/zD3/fGC8v2lwC5JxVPdHUebAM9cyeu0P950svomGRI+SFcBsECBAgQIAAgZoFBLmagZUnQIAAAQIECBAgQIBA1QKCXNWi6hEgQIAAAQIECBAgQKBmAUGuZmDlCRAgQIAAAQIECBAgULWAIFe1qHoECBAgQIAAAQIECBCoWUCQqxlYeQIECBAgQIAAAQIECFQtIMhVLaoeAQIECBAgQIAAAQIEahYQ5GoGVp4AAQIECBAgQIAAAQJVCwhyVYuqR4AAAQIECBAgQIAAgZoFBLmagZUnQIAAAQIECBAgQIBA1QKCXNWi6hEgQIAAAQIECBAgQKBmAUGuZmDlCRAgQIAAAQIECBAgULWAIFe1qHoECBAgQIAAAQIECBCoWUCQqxlYeQIECBAgQIAAAQIECFQtIMhVLaoeAQIECBAgQIAAAQIEahYQ5GoGVp4AAQIECBAgQIAAAQJVCwhyVYuqR4AAAQIECBAgQIAAgZoFBLmagZUnQIAAAQIECBAgQIBA1QKCXNWi6hEgQIAAAQIECBAgQKBmAUGuZmDlCRAgQIAAAQIECBAgULWAIFe1qHoECBAgQIAAAQIECBCoWUCQqxlYeQIECBAgQIAAAQIECFQtIMhVLaoeAQIECBAgQIAAAQIEahYQ5GoGVp4AAQIECBAgQIAAAQJVCwhyVYuqR4AAAQIECBAgQIAAgZoFBLmagZUnQIAAAQIECBAgQIBA1QKCXNWi6hEgQIAAAQIECBAgQKBmAUGuZmDlCRAgQIAAAQIECBAgULWAIFe1qHoECBAgQIAAAQIECBCoWUCQqxlYeQIECBAgQIAAAQIECFQtIMhVLaoeAQIECBAgQIAAAQIEahYQ5GoGVp4AAQIECBAgQIAAAQJVC/wXDh9MWKv8LREAAAAASUVORK5CYII=;" vertex="1" parent="1">
          <mxGeometry x="-40" y="-90" width="426.99" height="320" as="geometry" />
        </mxCell>
        <mxCell id="ELeqzbXnUGOwrgv0zDQ3-4" value="" style="edgeStyle=orthogonalEdgeStyle;rounded=0;orthogonalLoop=1;jettySize=auto;html=1;" edge="1" parent="1" source="ELeqzbXnUGOwrgv0zDQ3-2" target="ELeqzbXnUGOwrgv0zDQ3-3">
          <mxGeometry relative="1" as="geometry" />
        </mxCell>
        <mxCell id="ELeqzbXnUGOwrgv0zDQ3-2" value="&lt;font size=&quot;1&quot;&gt;&lt;b style=&quot;font-size: 13px&quot;&gt;Activity/Fragment&lt;/b&gt;&lt;/font&gt;" style="rounded=1;whiteSpace=wrap;html=1;" vertex="1" parent="1">
          <mxGeometry x="490" y="-130" width="160" height="60" as="geometry" />
        </mxCell>
        <mxCell id="ELeqzbXnUGOwrgv0zDQ3-3" value="&lt;b&gt;ViewModel&lt;/b&gt;" style="whiteSpace=wrap;html=1;rounded=1;" vertex="1" parent="1">
          <mxGeometry x="440" y="10" width="260" height="60" as="geometry" />
        </mxCell>
      </root>
    </mxGraphModel>
  </diagram>
</mxfile>
